{
  "source": "C:\\Users\\Peter\\Desktop\\stuff\\MIUN\\quantitative_research\\video_compression\\videos\\UVG\\ReadySteadyGo_1920x1080_120fps_420_8bit_YUV.y4m",
  "output": "C:\\Users\\Peter\\Desktop\\stuff\\MIUN\\quantitative_research\\video_compression\\compressed_videos\\UVG\\av1\\4\\ReadySteadyGo_1920x1080_120fps_420_8bit_YUV_av1.mkv",
  "codec": "av1",
  "ok": "[yuv4mpegpipe @ 0000020d96c35c40] Stream #0: not enough frames to estimate rate; consider increasing probesize\nInput #0, yuv4mpegpipe, from 'C:\\Users\\Peter\\Desktop\\stuff\\MIUN\\quantitative_research\\video_compression\\videos\\UVG\\ReadySteadyGo_1920x1080_120fps_420_8bit_YUV.y4m':\n  Duration: 00:00:05.00, start: 0.000000, bitrate: 2985989 kb/s\n  Stream #0:0: Video: rawvideo (I420 / 0x30323449), yuv420p(progressive), 1920x1080, 120 fps, 120 tbr, 120 tbn\n[out#0/matroska @ 0000020d96c39940] Codec AVOption b:a (set bitrate (in bits/s)) has not been used for any stream. The most likely reason is either wrong type (e.g. a video option with no video streams) or that it is a private option of some decoder which was not actually used for any stream.\nStream mapping:\n  Stream #0:0 -> #0:0 (rawvideo (native) -> av1 (libsvtav1))\nPress [q] to stop, [?] for help\nSvt[info]: -------------------------------------------\nSvt[info]: SVT [version]:\tSVT-AV1 Encoder Lib v3.1.0-19-g6ecfe8ec\nSvt[info]: SVT [build]  :\tGCC 15.2.0\t 64 bit\nSvt[info]: LIB Build date: Aug 17 2025 11:37:13\nSvt[info]: -------------------------------------------\n[libsvtav1 @ 0000020d96c3c280] Specified chroma sample location center is unsupported on the AV1 bit stream level. Usage of a container that allows passing this information - such as Matroska - is recommended.\nSvt[info]: Level of Parallelism: 5\nSvt[info]: Number of PPCS 93\nSvt[info]: [asm level on system : up to avx2]\nSvt[info]: [asm level selected : up to avx2]\nSvt[info]: -------------------------------------------\nSvt[info]: SVT [config]: main profile\ttier (auto)\tlevel (auto)\nSvt[info]: SVT [config]: width / height / fps numerator / fps denominator \t\t: 1920 / 1080 / 120 / 1\nSvt[info]: SVT [config]: bit-depth / color format \t\t\t\t\t: 8 / YUV420\nSvt[info]: SVT [config]: preset / tune / pred struct \t\t\t\t\t: 4 / PSNR / random access\nSvt[info]: SVT [config]: gop size / mini-gop size / key-frame type \t\t\t: 641 / 16 / key frame\nSvt[info]: SVT [config]: BRC mode / target bitrate (kbps)\t\t\t\t: VBR / 4000 \nSvt[info]: SVT [config]: AQ mode / Variance Boost \t\t\t\t\t: 2 / 0\nSvt[info]: SVT [config]: sharpness / luminance-based QP bias \t\t\t\t: 0 / 0\nSvt[info]: SVT [config]: QP scale compress strength \t\t\t\t\t: 0\nSvt[info]: -------------------------------------------\nOutput #0, matroska, to 'C:\\Users\\Peter\\Desktop\\stuff\\MIUN\\quantitative_research\\video_compression\\compressed_videos\\UVG\\av1\\4\\ReadySteadyGo_1920x1080_120fps_420_8bit_YUV_av1.mkv':\n  Metadata:\n    encoder         : Lavf62.3.100\n  Stream #0:0: Video: av1 (AV01 / 0x31305641), yuv420p(tv, progressive), 1920x1080, q=2-31, 4000 kb/s, 120 fps, 1k tbn\n    Metadata:\n      encoder         : Lavc62.11.100 libsvtav1\n    Side data:\n      cpb: bitrate max/min/avg: 0/0/4000000 buffer size: 4000000 vbv_delay: N/A\nframe=    0 fps=0.0 q=0.0 size=       0KiB time=N/A bitrate=N/A speed=N/A elapsed=0:00:03.07    \nframe=    0 fps=0.0 q=0.0 size=       0KiB time=N/A bitrate=N/A speed=N/A elapsed=0:00:03.59    \nframe=    0 fps=0.0 q=0.0 size=       0KiB time=N/A bitrate=N/A speed=N/A elapsed=0:00:04.11    \nframe=    0 fps=0.0 q=0.0 size=       0KiB time=N/A bitrate=N/A speed=N/A elapsed=0:00:04.64    \nframe=    0 fps=0.0 q=0.0 size=       0KiB time=N/A bitrate=N/A speed=N/A elapsed=0:00:05.15    \nframe=    0 fps=0.0 q=0.0 size=       0KiB time=N/A bitrate=N/A speed=N/A elapsed=0:00:05.65    \nframe=    0 fps=0.0 q=0.0 size=       0KiB time=N/A bitrate=N/A speed=N/A elapsed=0:00:06.17    \nframe=    0 fps=0.0 q=0.0 size=       0KiB time=N/A bitrate=N/A speed=N/A elapsed=0:00:06.69    \nframe=    0 fps=0.0 q=0.0 size=       0KiB time=N/A bitrate=N/A speed=N/A elapsed=0:00:07.21    \nframe=    0 fps=0.0 q=0.0 size=       0KiB time=N/A bitrate=N/A speed=N/A elapsed=0:00:07.73    \nframe=    0 fps=0.0 q=0.0 size=       0KiB time=N/A bitrate=N/A speed=N/A elapsed=0:00:08.23    \nframe=    0 fps=0.0 q=0.0 size=       0KiB time=N/A bitrate=N/A speed=N/A elapsed=0:00:08.75    \nframe=    0 fps=0.0 q=0.0 size=       0KiB time=N/A bitrate=N/A speed=N/A elapsed=0:00:09.26    \nframe=    0 fps=0.0 q=0.0 size=       0KiB time=N/A bitrate=N/A speed=N/A elapsed=0:00:09.79    \nframe=    0 fps=0.0 q=0.0 size=       0KiB time=N/A bitrate=N/A speed=N/A elapsed=0:00:10.30    \nframe=    0 fps=0.0 q=0.0 size=       0KiB time=N/A bitrate=N/A speed=N/A elapsed=0:00:10.82    \nframe=    0 fps=0.0 q=0.0 size=       0KiB time=N/A bitrate=N/A speed=N/A elapsed=0:00:11.47    \nframe=    0 fps=0.0 q=0.0 size=       0KiB time=N/A bitrate=N/A speed=N/A elapsed=0:00:11.99    \nframe=    0 fps=0.0 q=0.0 size=       0KiB time=N/A bitrate=N/A speed=N/A elapsed=0:00:12.50    \nframe=    0 fps=0.0 q=0.0 size=       0KiB time=N/A bitrate=N/A speed=N/A elapsed=0:00:13.02    \nframe=    0 fps=0.0 q=0.0 size=       0KiB time=N/A bitrate=N/A speed=N/A elapsed=0:00:13.53    \nframe=    0 fps=0.0 q=0.0 size=       0KiB time=N/A bitrate=N/A speed=N/A elapsed=0:00:14.05    \nframe=    0 fps=0.0 q=0.0 size=       0KiB time=N/A bitrate=N/A speed=N/A elapsed=0:00:14.56    \nframe=    1 fps=0.1 q=17.0 size=       1KiB time=00:00:00.00 bitrate=N/A speed=   0x elapsed=0:00:15.08    \nframe=    1 fps=0.1 q=17.0 size=       1KiB time=00:00:00.00 bitrate=N/A speed=   0x elapsed=0:00:15.60    \nframe=    1 fps=0.1 q=17.0 size=       1KiB time=00:00:00.00 bitrate=N/A speed=   0x elapsed=0:00:16.12    \nframe=    1 fps=0.1 q=17.0 size=       1KiB time=00:00:00.00 bitrate=N/A speed=   0x elapsed=0:00:16.64    \nframe=    1 fps=0.1 q=17.0 size=       1KiB time=00:00:00.00 bitrate=N/A speed=   0x elapsed=0:00:17.14    \nframe=    1 fps=0.1 q=17.0 size=       1KiB time=00:00:00.00 bitrate=N/A speed=   0x elapsed=0:00:17.66    \nframe=    1 fps=0.1 q=17.0 size=       1KiB time=00:00:00.00 bitrate=N/A speed=   0x elapsed=0:00:18.17    \nframe=    1 fps=0.1 q=17.0 size=       1KiB time=00:00:00.00 bitrate=N/A speed=   0x elapsed=0:00:18.69    \nframe=    1 fps=0.1 q=17.0 size=       1KiB time=00:00:00.00 bitrate=N/A speed=   0x elapsed=0:00:19.21    \nframe=    1 fps=0.1 q=17.0 size=       1KiB time=00:00:00.00 bitrate=N/A speed=   0x elapsed=0:00:19.73    \nframe=    1 fps=0.0 q=17.0 size=       1KiB time=00:00:00.00 bitrate=N/A speed=   0x elapsed=0:00:20.23    \nframe=    1 fps=0.0 q=17.0 size=       1KiB time=00:00:00.00 bitrate=N/A speed=   0x elapsed=0:00:20.76    \nframe=    3 fps=0.1 q=45.0 size=       1KiB time=00:00:00.01 bitrate= 268.8kbits/s speed=0.000783x elapsed=0:00:21.27    \nframe=    4 fps=0.2 q=48.0 size=       1KiB time=00:00:00.02 bitrate= 179.2kbits/s speed=0.00115x elapsed=0:00:21.79    \nframe=    6 fps=0.3 q=48.0 size=       1KiB time=00:00:00.04 bitrate= 107.5kbits/s speed=0.00187x elapsed=0:00:22.30    \nframe=    6 fps=0.3 q=48.0 size=       1KiB time=00:00:00.04 bitrate= 107.5kbits/s speed=0.00183x elapsed=0:00:22.81    \nframe=    7 fps=0.3 q=45.0 size=       1KiB time=00:00:00.05 bitrate=  89.6kbits/s speed=0.00214x elapsed=0:00:23.33    \nframe=    7 fps=0.3 q=45.0 size=       1KiB time=00:00:00.05 bitrate=  89.6kbits/s speed=0.0021x elapsed=0:00:23.84    \nframe=   10 fps=0.4 q=43.0 size=       1KiB time=00:00:00.07 bitrate=  59.7kbits/s speed=0.00308x elapsed=0:00:24.37    \nframe=   11 fps=0.4 q=44.0 size=       1KiB time=00:00:00.08 bitrate=  53.8kbits/s speed=0.00335x elapsed=0:00:24.88    \nframe=   11 fps=0.4 q=44.0 size=       1KiB time=00:00:00.08 bitrate=  53.8kbits/s speed=0.00328x elapsed=0:00:25.40    \nframe=   11 fps=0.4 q=44.0 size=       1KiB time=00:00:00.08 bitrate=  53.8kbits/s speed=0.00322x elapsed=0:00:25.91    \nframe=   13 fps=0.5 q=43.0 size=       1KiB time=00:00:00.10 bitrate=  44.8kbits/s speed=0.00378x elapsed=0:00:26.42    \nframe=   14 fps=0.5 q=42.0 size=       1KiB time=00:00:00.10 bitrate=  41.4kbits/s speed=0.00402x elapsed=0:00:26.93    \nframe=   15 fps=0.5 q=42.0 size=       1KiB time=00:00:00.11 bitrate=  38.4kbits/s speed=0.00425x elapsed=0:00:27.46    \nframe=   15 fps=0.5 q=42.0 size=       1KiB time=00:00:00.11 bitrate=  38.4kbits/s speed=0.00417x elapsed=0:00:27.97    \nframe=   17 fps=0.6 q=28.0 size=       1KiB time=00:00:00.13 bitrate=  33.6kbits/s speed=0.00468x elapsed=0:00:28.49    \nframe=   17 fps=0.6 q=28.0 size=       1KiB time=00:00:00.13 bitrate=  33.6kbits/s speed=0.0046x elapsed=0:00:29.00    \nframe=   18 fps=0.6 q=40.0 size=       1KiB time=00:00:00.14 bitrate=  31.6kbits/s speed=0.0048x elapsed=0:00:29.51    \nframe=   18 fps=0.6 q=40.0 size=       1KiB time=00:00:00.14 bitrate=  31.6kbits/s speed=0.00472x elapsed=0:00:30.03    \nframe=   19 fps=0.6 q=43.0 size=       1KiB time=00:00:00.15 bitrate=  29.9kbits/s speed=0.00491x elapsed=0:00:30.55    \nframe=   20 fps=0.6 q=40.0 size=       1KiB time=00:00:00.15 bitrate=  28.3kbits/s speed=0.0051x elapsed=0:00:31.06    \nframe=   21 fps=0.7 q=43.0 size=       1KiB time=00:00:00.16 bitrate=  26.9kbits/s speed=0.00528x elapsed=0:00:31.58    \nframe=   22 fps=0.7 q=40.0 size=       1KiB time=00:00:00.17 bitrate=  25.6kbits/s speed=0.00545x elapsed=0:00:32.10    \nframe=   23 fps=0.7 q=43.0 size=       1KiB time=00:00:00.18 bitrate=  24.4kbits/s speed=0.00562x elapsed=0:00:32.61    \nframe=   23 fps=0.7 q=43.0 size=       1KiB time=00:00:00.18 bitrate=  24.4kbits/s speed=0.00553x elapsed=0:00:33.13    \nframe=   23 fps=0.7 q=43.0 size=       1KiB time=00:00:00.18 bitrate=  24.4kbits/s speed=0.00545x elapsed=0:00:33.64    \nframe=   24 fps=0.7 q=42.0 size=       1KiB time=00:00:00.19 bitrate=  23.4kbits/s speed=0.00561x elapsed=0:00:34.16    \nframe=   25 fps=0.7 q=40.0 size=       1KiB time=00:00:00.20 bitrate=  22.4kbits/s speed=0.00577x elapsed=0:00:34.67    \nframe=   26 fps=0.7 q=42.0 size=       1KiB time=00:00:00.20 bitrate=  21.5kbits/s speed=0.00592x elapsed=0:00:35.20    \nframe=   27 fps=0.8 q=43.0 size=       1KiB time=00:00:00.21 bitrate=  20.7kbits/s speed=0.00607x elapsed=0:00:35.71    \nframe=   27 fps=0.7 q=43.0 size=       1KiB time=00:00:00.21 bitrate=  20.7kbits/s speed=0.00598x elapsed=0:00:36.23    \nframe=   28 fps=0.8 q=42.0 size=       1KiB time=00:00:00.22 bitrate=  19.9kbits/s speed=0.00612x elapsed=0:00:36.74    \nframe=   28 fps=0.8 q=42.0 size=       1KiB time=00:00:00.22 bitrate=  19.9kbits/s speed=0.00604x elapsed=0:00:37.25    \nframe=   29 fps=0.8 q=40.0 size=       1KiB time=00:00:00.23 bitrate=  19.2kbits/s speed=0.00618x elapsed=0:00:37.77    \nframe=   29 fps=0.8 q=40.0 size=       1KiB time=00:00:00.23 bitrate=  19.2kbits/s speed=0.00609x elapsed=0:00:38.29    \nframe=   30 fps=0.8 q=42.0 size=       1KiB time=00:00:00.24 bitrate=  18.5kbits/s speed=0.00623x elapsed=0:00:38.80    \nframe=   30 fps=0.8 q=42.0 size=       1KiB time=00:00:00.24 bitrate=  18.5kbits/s speed=0.00615x elapsed=0:00:39.31    \nframe=   33 fps=0.8 q=27.0 size=       1KiB time=00:00:00.26 bitrate=  16.8kbits/s speed=0.00669x elapsed=0:00:39.84    \nframe=   33 fps=0.8 q=27.0 size=       1KiB time=00:00:00.26 bitrate=  16.8kbits/s speed=0.00661x elapsed=0:00:40.34    \nframe=   34 fps=0.8 q=43.0 size=       1KiB time=00:00:00.27 bitrate=  16.3kbits/s speed=0.00673x elapsed=0:00:40.86    \nframe=   35 fps=0.8 q=43.0 size=       1KiB time=00:00:00.28 bitrate=  15.8kbits/s speed=0.00685x elapsed=0:00:41.38    \nframe=   35 fps=0.8 q=43.0 size=       1KiB time=00:00:00.28 bitrate=  15.8kbits/s speed=0.00676x elapsed=0:00:41.90    \nframe=   36 fps=0.8 q=42.0 size=       1KiB time=00:00:00.29 bitrate=  15.4kbits/s speed=0.00688x elapsed=0:00:42.41    \nframe=   37 fps=0.9 q=42.0 size=       1KiB time=00:00:00.30 bitrate=  14.9kbits/s speed=0.00699x elapsed=0:00:42.92    \nframe=   37 fps=0.9 q=42.0 size=       1KiB time=00:00:00.30 bitrate=  14.9kbits/s speed=0.0069x elapsed=0:00:43.44    \nframe=   37 fps=0.8 q=42.0 size=       1KiB time=00:00:00.30 bitrate=  14.9kbits/s speed=0.00682x elapsed=0:00:43.95    \nframe=   38 fps=0.9 q=42.0 size=       1KiB time=00:00:00.30 bitrate=  14.5kbits/s speed=0.00693x elapsed=0:00:44.47    \nframe=   38 fps=0.8 q=42.0 size=       1KiB time=00:00:00.30 bitrate=  14.5kbits/s speed=0.00685x elapsed=0:00:44.98    \nframe=   38 fps=0.8 q=42.0 size=       1KiB time=00:00:00.30 bitrate=  14.5kbits/s speed=0.00678x elapsed=0:00:45.50    \nframe=   39 fps=0.8 q=43.0 size=       1KiB time=00:00:00.31 bitrate=  14.1kbits/s speed=0.00688x elapsed=0:00:46.02    \nframe=   40 fps=0.9 q=42.0 size=       1KiB time=00:00:00.32 bitrate=  13.8kbits/s speed=0.00698x elapsed=0:00:46.53    \nframe=   40 fps=0.9 q=42.0 size=       1KiB time=00:00:00.32 bitrate=  13.8kbits/s speed=0.00691x elapsed=0:00:47.05    \nframe=   42 fps=0.9 q=43.0 size=       1KiB time=00:00:00.34 bitrate=  13.1kbits/s speed=0.00718x elapsed=0:00:47.57    \nframe=   43 fps=0.9 q=43.0 size=       1KiB time=00:00:00.35 bitrate=  12.8kbits/s speed=0.00728x elapsed=0:00:48.08    \nframe=   43 fps=0.9 q=43.0 size=       1KiB time=00:00:00.35 bitrate=  12.8kbits/s speed=0.0072x elapsed=0:00:48.60    \nframe=   44 fps=0.9 q=43.0 size=       1KiB time=00:00:00.35 bitrate=  12.5kbits/s speed=0.00729x elapsed=0:00:49.12    \nframe=   45 fps=0.9 q=40.0 size=       1KiB time=00:00:00.36 bitrate=  12.2kbits/s speed=0.00739x elapsed=0:00:49.62    \nframe=   46 fps=0.9 q=43.0 size=       1KiB time=00:00:00.37 bitrate=  11.9kbits/s speed=0.00748x elapsed=0:00:50.15    \nframe=   48 fps=0.9 q=43.0 size=       1KiB time=00:00:00.39 bitrate=  11.4kbits/s speed=0.00773x elapsed=0:00:50.66    \nframe=   49 fps=1.0 q=22.0 size=       1KiB time=00:00:00.40 bitrate=  11.2kbits/s speed=0.00782x elapsed=0:00:51.17    \nframe=   49 fps=0.9 q=22.0 size=       1KiB time=00:00:00.40 bitrate=  11.2kbits/s speed=0.00774x elapsed=0:00:51.69    \nframe=   50 fps=1.0 q=44.0 size=       1KiB time=00:00:00.40 bitrate=  11.0kbits/s speed=0.00782x elapsed=0:00:52.21    \nframe=   50 fps=0.9 q=44.0 size=       1KiB time=00:00:00.40 bitrate=  11.0kbits/s speed=0.00774x elapsed=0:00:52.72    \nframe=   51 fps=1.0 q=44.0 size=       1KiB time=00:00:00.41 bitrate=  10.8kbits/s speed=0.00783x elapsed=0:00:53.23    \nframe=   51 fps=0.9 q=44.0 size=       1KiB time=00:00:00.41 bitrate=  10.8kbits/s speed=0.00775x elapsed=0:00:53.76    \nframe=   53 fps=1.0 q=42.0 size=       1KiB time=00:00:00.43 bitrate=  10.3kbits/s speed=0.00798x elapsed=0:00:54.27    \nframe=   53 fps=1.0 q=42.0 size=       1KiB time=00:00:00.43 bitrate=  10.3kbits/s speed=0.00791x elapsed=0:00:54.79    \nframe=   54 fps=1.0 q=43.0 size=       1KiB time=00:00:00.44 bitrate=  10.1kbits/s speed=0.00799x elapsed=0:00:55.30    \nframe=   55 fps=1.0 q=41.0 size=       1KiB time=00:00:00.45 bitrate=  10.0kbits/s speed=0.00806x elapsed=0:00:55.81    \nframe=   55 fps=1.0 q=41.0 size=       1KiB time=00:00:00.45 bitrate=  10.0kbits/s speed=0.00799x elapsed=0:00:56.33    \nframe=   57 fps=1.0 q=39.0 size=       1KiB time=00:00:00.46 bitrate=   9.6kbits/s speed=0.00821x elapsed=0:00:56.84    \nframe=   58 fps=1.0 q=44.0 size=       1KiB time=00:00:00.47 bitrate=   9.4kbits/s speed=0.00828x elapsed=0:00:57.36    \nframe=   59 fps=1.0 q=43.0 size=       1KiB time=00:00:00.48 bitrate=   9.3kbits/s speed=0.00835x elapsed=0:00:57.88    \nframe=   59 fps=1.0 q=43.0 size=       1KiB time=00:00:00.48 bitrate=   9.3kbits/s speed=0.00828x elapsed=0:00:58.40    \nframe=   59 fps=1.0 q=43.0 size=       1KiB time=00:00:00.48 bitrate=   9.3kbits/s speed=0.0082x elapsed=0:00:58.96    \nframe=   60 fps=1.0 q=42.0 size=       1KiB time=00:00:00.49 bitrate=   9.1kbits/s speed=0.00826x elapsed=0:00:59.52    \nframe=   61 fps=1.0 q=40.0 size=       1KiB time=00:00:00.50 bitrate=   9.0kbits/s speed=0.00833x elapsed=0:01:00.03    \nframe=   62 fps=1.0 q=44.0 size=       1KiB time=00:00:00.50 bitrate=   8.8kbits/s speed=0.00839x elapsed=0:01:00.56    \nframe=   63 fps=1.0 q=43.0 size=       1KiB time=00:00:00.51 bitrate=   8.7kbits/s speed=0.00846x elapsed=0:01:01.08    \nframe=   64 fps=1.0 q=44.0 size=       1KiB time=00:00:00.52 bitrate=   8.5kbits/s speed=0.00852x elapsed=0:01:01.60    \nframe=   65 fps=1.0 q=24.0 size=       1KiB time=00:00:00.53 bitrate=   8.4kbits/s speed=0.00859x elapsed=0:01:02.11    \nframe=   67 fps=1.1 q=44.0 size=       1KiB time=00:00:00.55 bitrate=   8.1kbits/s speed=0.00878x elapsed=0:01:02.66    \nframe=   67 fps=1.1 q=44.0 size=       1KiB time=00:00:00.55 bitrate=   8.1kbits/s speed=0.00871x elapsed=0:01:03.17    \nframe=   67 fps=1.1 q=44.0 size=       1KiB time=00:00:00.55 bitrate=   8.1kbits/s speed=0.00863x elapsed=0:01:03.70    \nframe=   67 fps=1.0 q=44.0 size=       1KiB time=00:00:00.55 bitrate=   8.1kbits/s speed=0.00856x elapsed=0:01:04.22    \nframe=   68 fps=1.1 q=45.0 size=       1KiB time=00:00:00.55 bitrate=   8.0kbits/s speed=0.00862x elapsed=0:01:04.75    \nframe=   69 fps=1.1 q=42.0 size=       1KiB time=00:00:00.56 bitrate=   7.9kbits/s speed=0.00867x elapsed=0:01:05.36    \nframe=   70 fps=1.1 q=44.0 size=       1KiB time=00:00:00.57 bitrate=   7.8kbits/s speed=0.00873x elapsed=0:01:05.88    \nframe=   70 fps=1.1 q=44.0 size=       1KiB time=00:00:00.57 bitrate=   7.8kbits/s speed=0.00866x elapsed=0:01:06.40    \nframe=   70 fps=1.0 q=44.0 size=       1KiB time=00:00:00.57 bitrate=   7.8kbits/s speed=0.00859x elapsed=0:01:06.92    \nframe=   71 fps=1.1 q=42.0 size=       1KiB time=00:00:00.58 bitrate=   7.7kbits/s speed=0.00865x elapsed=0:01:07.45    \nframe=   71 fps=1.0 q=42.0 size=       1KiB time=00:00:00.58 bitrate=   7.7kbits/s speed=0.00858x elapsed=0:01:07.97    \nframe=   71 fps=1.0 q=42.0 size=       1KiB time=00:00:00.58 bitrate=   7.7kbits/s speed=0.00851x elapsed=0:01:08.51    \nframe=   72 fps=1.0 q=44.0 size=       1KiB time=00:00:00.59 bitrate=   7.6kbits/s speed=0.00857x elapsed=0:01:09.03    \nframe=   74 fps=1.1 q=46.0 size=       1KiB time=00:00:00.60 bitrate=   7.4kbits/s speed=0.00875x elapsed=0:01:09.56    \nframe=   75 fps=1.1 q=44.0 size=       1KiB time=00:00:00.61 bitrate=   7.3kbits/s speed=0.0088x elapsed=0:01:10.08    \nframe=   77 fps=1.1 q=41.0 size=       1KiB time=00:00:00.63 bitrate=   7.1kbits/s speed=0.00896x elapsed=0:01:10.64    \nframe=   78 fps=1.1 q=46.0 size=       1KiB time=00:00:00.64 bitrate=   7.0kbits/s speed=0.00901x elapsed=0:01:11.17    \nframe=   79 fps=1.1 q=44.0 size=       1KiB time=00:00:00.65 bitrate=   6.9kbits/s speed=0.00907x elapsed=0:01:11.68    \nframe=   80 fps=1.1 q=46.0 size=       1KiB time=00:00:00.65 bitrate=   6.8kbits/s speed=0.00912x elapsed=0:01:12.20    \nframe=   81 fps=1.1 q=25.0 size=       1KiB time=00:00:00.66 bitrate=   6.7kbits/s speed=0.00916x elapsed=0:01:12.75    \nframe=   81 fps=1.1 q=25.0 size=       1KiB time=00:00:00.66 bitrate=   6.7kbits/s speed=0.0091x elapsed=0:01:13.27    \nframe=   83 fps=1.1 q=46.0 size=       1KiB time=00:00:00.68 bitrate=   6.6kbits/s speed=0.00926x elapsed=0:01:13.78    \nframe=   83 fps=1.1 q=46.0 size=       1KiB time=00:00:00.68 bitrate=   6.6kbits/s speed=0.00919x elapsed=0:01:14.31    \nframe=   84 fps=1.1 q=47.0 size=       1KiB time=00:00:00.69 bitrate=   6.5kbits/s speed=0.00924x elapsed=0:01:14.83    \nframe=   85 fps=1.1 q=43.0 size=       1KiB time=00:00:00.70 bitrate=   6.4kbits/s speed=0.00929x elapsed=0:01:15.34    \nframe=   86 fps=1.1 q=47.0 size=       1KiB time=00:00:00.70 bitrate=   6.3kbits/s speed=0.00934x elapsed=0:01:15.86    \nframe=   86 fps=1.1 q=47.0 size=       1KiB time=00:00:00.70 bitrate=   6.3kbits/s speed=0.00927x elapsed=0:01:16.42    \nframe=   86 fps=1.1 q=47.0 size=       1KiB time=00:00:00.70 bitrate=   6.3kbits/s speed=0.00921x elapsed=0:01:16.94    \nframe=   87 fps=1.1 q=46.0 size=       1KiB time=00:00:00.71 bitrate=   6.3kbits/s speed=0.00925x elapsed=0:01:17.45    \nframe=   87 fps=1.1 q=46.0 size=       1KiB time=00:00:00.71 bitrate=   6.3kbits/s speed=0.00919x elapsed=0:01:18.00    \nframe=   87 fps=1.1 q=46.0 size=       1KiB time=00:00:00.71 bitrate=   6.3kbits/s speed=0.00912x elapsed=0:01:18.57    \nframe=   89 fps=1.1 q=37.0 size=       1KiB time=00:00:00.73 bitrate=   6.1kbits/s speed=0.00927x elapsed=0:01:19.08    \nframe=   90 fps=1.1 q=47.0 size=       1KiB time=00:00:00.74 bitrate=   6.0kbits/s speed=0.00932x elapsed=0:01:19.59    \nframe=   90 fps=1.1 q=47.0 size=       1KiB time=00:00:00.74 bitrate=   6.0kbits/s speed=0.00926x elapsed=0:01:20.11    \nframe=   90 fps=1.1 q=47.0 size=       1KiB time=00:00:00.74 bitrate=   6.0kbits/s speed=0.0092x elapsed=0:01:20.64    \nframe=   91 fps=1.1 q=45.0 size=       1KiB time=00:00:00.75 bitrate=   6.0kbits/s speed=0.00924x elapsed=0:01:21.19    \nframe=   91 fps=1.1 q=45.0 size=       1KiB time=00:00:00.75 bitrate=   6.0kbits/s speed=0.00918x elapsed=0:01:21.71    \nframe=   91 fps=1.1 q=45.0 size=       1KiB time=00:00:00.75 bitrate=   6.0kbits/s speed=0.00912x elapsed=0:01:22.24    \nframe=   92 fps=1.1 q=47.0 size=       1KiB time=00:00:00.75 bitrate=   5.9kbits/s speed=0.00916x elapsed=0:01:22.75    \nframe=   93 fps=1.1 q=41.0 size=       1KiB time=00:00:00.76 bitrate=   5.8kbits/s speed=0.00921x elapsed=0:01:23.28    \nframe=   95 fps=1.1 q=43.0 size=       1KiB time=00:00:00.78 bitrate=   5.7kbits/s speed=0.00935x elapsed=0:01:23.80    \nframe=   95 fps=1.1 q=43.0 size=       1KiB time=00:00:00.78 bitrate=   5.7kbits/s speed=0.00929x elapsed=0:01:24.32    \nframe=   95 fps=1.1 q=43.0 size=       1KiB time=00:00:00.78 bitrate=   5.7kbits/s speed=0.00923x elapsed=0:01:24.85    \nframe=   96 fps=1.1 q=43.0 size=       1KiB time=00:00:00.79 bitrate=   5.7kbits/s speed=0.00927x elapsed=0:01:25.36    \nframe=   97 fps=1.1 q=26.0 size=       1KiB time=00:00:00.80 bitrate=   5.6kbits/s speed=0.00932x elapsed=0:01:25.87    \nframe=   98 fps=1.1 q=47.0 size=       1KiB time=00:00:00.80 bitrate=   5.5kbits/s speed=0.00936x elapsed=0:01:26.40    \nframe=   98 fps=1.1 q=47.0 size=       1KiB time=00:00:00.80 bitrate=   5.5kbits/s speed=0.00929x elapsed=0:01:26.96    \nframe=   99 fps=1.1 q=46.0 size=       1KiB time=00:00:00.81 bitrate=   5.5kbits/s speed=0.00934x elapsed=0:01:27.47    \nframe=   99 fps=1.1 q=46.0 size=       1KiB time=00:00:00.81 bitrate=   5.5kbits/s speed=0.00928x elapsed=0:01:27.98    \nframe=  100 fps=1.1 q=47.0 size=       1KiB time=00:00:00.82 bitrate=   5.4kbits/s speed=0.00932x elapsed=0:01:28.50    \nframe=  101 fps=1.1 q=43.0 size=       1KiB time=00:00:00.83 bitrate=   5.4kbits/s speed=0.00936x elapsed=0:01:29.03    \nframe=  101 fps=1.1 q=43.0 size=       1KiB time=00:00:00.83 bitrate=   5.4kbits/s speed=0.00931x elapsed=0:01:29.55    \nframe=  101 fps=1.1 q=43.0 size=       1KiB time=00:00:00.83 bitrate=   5.4kbits/s speed=0.00925x elapsed=0:01:30.06    \nframe=  102 fps=1.1 q=47.0 size=       1KiB time=00:00:00.84 bitrate=   5.3kbits/s speed=0.00929x elapsed=0:01:30.62    \nframe=  102 fps=1.1 q=47.0 size=       1KiB time=00:00:00.84 bitrate=   5.3kbits/s speed=0.00924x elapsed=0:01:31.13    \nframe=  102 fps=1.1 q=47.0 size=       1KiB time=00:00:00.84 bitrate=   5.3kbits/s speed=0.00918x elapsed=0:01:31.65    \nframe=  102 fps=1.1 q=47.0 size=       1KiB time=00:00:00.84 bitrate=   5.3kbits/s speed=0.00913x elapsed=0:01:32.16    \nframe=  104 fps=1.1 q=47.0 size=       1KiB time=00:00:00.85 bitrate=   5.2kbits/s speed=0.00926x elapsed=0:01:32.69    \nframe=  104 fps=1.1 q=47.0 size=       1KiB time=00:00:00.85 bitrate=   5.2kbits/s speed=0.00921x elapsed=0:01:33.22    \nframe=  105 fps=1.1 q=38.0 size=       1KiB time=00:00:00.86 bitrate=   5.2kbits/s speed=0.00924x elapsed=0:01:33.78    \nframe=  105 fps=1.1 q=38.0 size=       1KiB time=00:00:00.86 bitrate=   5.2kbits/s speed=0.00919x elapsed=0:01:34.33    \nframe=  106 fps=1.1 q=47.0 size=       1KiB time=00:00:00.87 bitrate=   5.1kbits/s speed=0.00923x elapsed=0:01:34.84    \nframe=  106 fps=1.1 q=47.0 size=       1KiB time=00:00:00.87 bitrate=   5.1kbits/s speed=0.00916x elapsed=0:01:35.50    \nframe=  106 fps=1.1 q=47.0 size=       1KiB time=00:00:00.87 bitrate=   5.1kbits/s speed=0.00911x elapsed=0:01:36.05    \nframe=  106 fps=1.1 q=47.0 size=       1KiB time=00:00:00.87 bitrate=   5.1kbits/s speed=0.00905x elapsed=0:01:36.64    \nframe=  107 fps=1.1 q=45.0 size=       1KiB time=00:00:00.88 bitrate=   5.1kbits/s speed=0.00909x elapsed=0:01:37.16    \nframe=  110 fps=1.1 q=46.0 size=       1KiB time=00:00:00.90 bitrate=   4.9kbits/s speed=0.0093x elapsed=0:01:37.69    \nframe=  112 fps=1.1 q=46.0 size=       1KiB time=00:00:00.92 bitrate=   4.8kbits/s speed=0.00942x elapsed=0:01:38.20    \nframe=  113 fps=1.1 q=27.0 size=       1KiB time=00:00:00.93 bitrate=   4.8kbits/s speed=0.00945x elapsed=0:01:38.72    \nframe=  114 fps=1.1 q=47.0 size=       1KiB time=00:00:00.94 bitrate=   4.8kbits/s speed=0.00948x elapsed=0:01:39.30    \nframe=  114 fps=1.1 q=47.0 size=       1KiB time=00:00:00.94 bitrate=   4.8kbits/s speed=0.00943x elapsed=0:01:39.83    \nframe=  115 fps=1.1 q=46.0 size=       1KiB time=00:00:00.95 bitrate=   4.7kbits/s speed=0.00947x elapsed=0:01:40.34    \nframe=  116 fps=1.1 q=48.0 size=       1KiB time=00:00:00.95 bitrate=   4.7kbits/s speed=0.0095x elapsed=0:01:40.87    \nframe=  117 fps=1.2 q=43.0 size=       1KiB time=00:00:00.96 bitrate=   4.6kbits/s speed=0.00953x elapsed=0:01:41.39    \nframe=  117 fps=1.1 q=43.0 size=       1KiB time=00:00:00.96 bitrate=   4.6kbits/s speed=0.00949x elapsed=0:01:41.91    \nframe=  117 fps=1.1 q=43.0 size=       1KiB time=00:00:00.96 bitrate=   4.6kbits/s speed=0.00943x elapsed=0:01:42.45    \nframe=  118 fps=1.1 q=48.0 size=       1KiB time=00:00:00.97 bitrate=   4.6kbits/s speed=0.00946x elapsed=0:01:43.01    \nframe=  118 fps=1.1 q=48.0 size=       1KiB time=00:00:00.97 bitrate=   4.6kbits/s speed=0.00942x elapsed=0:01:43.54    \nframe=  119 fps=1.1 q=46.0 size=       1KiB time=00:00:00.97 bitrate=   4.6kbits/s speed=0.00937x elapsed=0:01:44.04    \nframe=  120 fps=1.1 q=48.0 size=       1KiB time=00:00:00.99 bitrate=   4.5kbits/s speed=0.00948x elapsed=0:01:44.63    \nframe=  120 fps=1.1 q=48.0 size=       1KiB time=00:00:00.99 bitrate=   4.5kbits/s speed=0.00943x elapsed=0:01:45.17    \nframe=  121 fps=1.1 q=37.0 size=       1KiB time=00:00:01.00 bitrate=   4.5kbits/s speed=0.00946x elapsed=0:01:45.70    \nframe=  121 fps=1.1 q=37.0 size=       1KiB time=00:00:01.00 bitrate=   4.5kbits/s speed=0.00941x elapsed=0:01:46.22    \nframe=  122 fps=1.1 q=47.0 size=       1KiB time=00:00:01.00 bitrate=   4.5kbits/s speed=0.00937x elapsed=0:01:46.74    \nframe=  122 fps=1.1 q=47.0 size=       1KiB time=00:00:01.00 bitrate=   4.4kbits/s speed=0.00939x elapsed=0:01:47.41    \nframe=  123 fps=1.1 q=45.0 size=       1KiB time=00:00:01.01 bitrate=   4.4kbits/s speed=0.00942x elapsed=0:01:47.95    \nframe=  125 fps=1.2 q=41.0 size=       1KiB time=00:00:01.02 bitrate=   4.4kbits/s speed=0.00945x elapsed=0:01:48.49    \nframe=  127 fps=1.2 q=45.0 size=       1KiB time=00:00:01.05 bitrate=   4.3kbits/s speed=0.00962x elapsed=0:01:49.17    \nframe=  129 fps=1.2 q=26.0 size=       1KiB time=00:00:01.06 bitrate=   4.2kbits/s speed=0.00972x elapsed=0:01:49.70    \nframe=  130 fps=1.2 q=49.0 size=       1KiB time=00:00:01.07 bitrate=   4.2kbits/s speed=0.00975x elapsed=0:01:50.22    \nframe=  131 fps=1.2 q=47.0 size=       1KiB time=00:00:01.08 bitrate=   4.1kbits/s speed=0.00978x elapsed=0:01:50.77    \nframe=  132 fps=1.2 q=49.0 size=       1KiB time=00:00:01.09 bitrate=   4.1kbits/s speed=0.00981x elapsed=0:01:51.32    \nframe=  133 fps=1.2 q=45.0 size=       1KiB time=00:00:01.10 bitrate=   4.1kbits/s speed=0.00983x elapsed=0:01:51.86    \nframe=  133 fps=1.2 q=45.0 size=       1KiB time=00:00:01.10 bitrate=   4.1kbits/s speed=0.00978x elapsed=0:01:52.45    \nframe=  134 fps=1.2 q=49.0 size=       1KiB time=00:00:01.10 bitrate=   4.0kbits/s speed=0.00981x elapsed=0:01:52.99    \nframe=  134 fps=1.2 q=49.0 size=       1KiB time=00:00:01.10 bitrate=   4.0kbits/s speed=0.00976x elapsed=0:01:53.58    \nframe=  134 fps=1.2 q=49.0 size=       1KiB time=00:00:01.10 bitrate=   4.0kbits/s speed=0.00971x elapsed=0:01:54.12    \nframe=  137 fps=1.2 q=40.0 size=       1KiB time=00:00:01.11 bitrate=   4.0kbits/s speed=0.00974x elapsed=0:01:54.67    \nframe=  137 fps=1.2 q=40.0 size=       1KiB time=00:00:01.13 bitrate=   4.0kbits/s speed=0.00983x elapsed=0:01:55.30    \nframe=  138 fps=1.2 q=49.0 size=       1KiB time=00:00:01.14 bitrate=   3.9kbits/s speed=0.00985x elapsed=0:01:55.92    \nframe=  139 fps=1.2 q=46.0 size=       1KiB time=00:00:01.15 bitrate=   3.9kbits/s speed=0.00987x elapsed=0:01:56.51    \nframe=  140 fps=1.2 q=49.0 size=       1KiB time=00:00:01.15 bitrate=   3.9kbits/s speed=0.00988x elapsed=0:01:57.18    \nframe=  142 fps=1.2 q=49.0 size=       1KiB time=00:00:01.17 bitrate=   3.8kbits/s speed=0.00998x elapsed=0:01:57.70    \nframe=  144 fps=1.2 q=49.0 size=       1KiB time=00:00:01.19 bitrate=   3.8kbits/s speed=0.0101x elapsed=0:01:58.23    \nframe=  144 fps=1.2 q=49.0 size=       1KiB time=00:00:01.19 bitrate=   3.8kbits/s speed=0.01x elapsed=0:01:58.84    \nframe=  145 fps=1.2 q=28.0 size=       1KiB time=00:00:01.20 bitrate=   3.7kbits/s speed=0.01x elapsed=0:01:59.46    \nframe=  146 fps=1.2 q=49.0 size=       1KiB time=00:00:01.20 bitrate=   3.7kbits/s speed=0.0101x elapsed=0:01:59.98    \nframe=  146 fps=1.2 q=49.0 size=       1KiB time=00:00:01.20 bitrate=   3.7kbits/s speed=0.01x elapsed=0:02:00.57    \nframe=  146 fps=1.2 q=49.0 size=       1KiB time=00:00:01.20 bitrate=   3.7kbits/s speed=0.00998x elapsed=0:02:01.10    \nframe=  147 fps=1.2 q=47.0 size=       1KiB time=00:00:01.21 bitrate=   3.7kbits/s speed=0.00999x elapsed=0:02:01.73    \nframe=  148 fps=1.2 q=49.0 size=       1KiB time=00:00:01.22 bitrate=   3.7kbits/s speed=0.01x elapsed=0:02:02.27    \nframe=  148 fps=1.2 q=49.0 size=       1KiB time=00:00:01.22 bitrate=   3.7kbits/s speed=0.00998x elapsed=0:02:02.79    \nframe=  149 fps=1.2 q=45.0 size=       1KiB time=00:00:01.23 bitrate=   3.6kbits/s speed=0.01x elapsed=0:02:03.30    \nframe=  150 fps=1.2 q=49.0 size=       1KiB time=00:00:01.24 bitrate=   3.6kbits/s speed=0.01x elapsed=0:02:03.82    \nframe=  151 fps=1.2 q=43.0 size=       1KiB time=00:00:01.25 bitrate=   3.6kbits/s speed=0.0101x elapsed=0:02:04.34    \nframe=  152 fps=1.2 q=49.0 size=       1KiB time=00:00:01.25 bitrate=   3.6kbits/s speed=0.0101x elapsed=0:02:04.87    \nframe=  153 fps=1.2 q=41.0 size=       1KiB time=00:00:01.26 bitrate=   3.5kbits/s speed=0.0101x elapsed=0:02:05.39    \nframe=  154 fps=1.2 q=51.0 size=       1KiB time=00:00:01.27 bitrate=   3.5kbits/s speed=0.0101x elapsed=0:02:05.97    \nframe=  154 fps=1.2 q=51.0 size=       1KiB time=00:00:01.27 bitrate=   3.5kbits/s speed=0.0101x elapsed=0:02:06.49    \nframe=  155 fps=1.2 q=46.0 size=       1KiB time=00:00:01.28 bitrate=   3.5kbits/s speed=0.0101x elapsed=0:02:07.00    \nframe=  157 fps=1.2 q=42.0 size=       1KiB time=00:00:01.30 bitrate=   3.4kbits/s speed=0.0102x elapsed=0:02:07.53    \nframe=  160 fps=1.2 q=51.0 size=       1KiB time=00:00:01.32 bitrate=   3.4kbits/s speed=0.0103x elapsed=0:02:08.13    \nframe=  161 fps=1.3 q=28.0 size=       1KiB time=00:00:01.33 bitrate=   3.4kbits/s speed=0.0104x elapsed=0:02:08.73    \nframe=  162 fps=1.3 q=51.0 size=       1KiB time=00:00:01.34 bitrate=   3.3kbits/s speed=0.0104x elapsed=0:02:09.37    \nframe=  163 fps=1.3 q=49.0 size=       1KiB time=00:00:01.35 bitrate=   3.3kbits/s speed=0.0104x elapsed=0:02:09.88    \nframe=  164 fps=1.3 q=51.0 size=       1KiB time=00:00:01.35 bitrate=   3.3kbits/s speed=0.0104x elapsed=0:02:10.39    \nframe=  165 fps=1.3 q=46.0 size=       1KiB time=00:00:01.36 bitrate=   3.3kbits/s speed=0.0104x elapsed=0:02:10.91    \nframe=  165 fps=1.3 q=46.0 size=       1KiB time=00:00:01.36 bitrate=   3.3kbits/s speed=0.0104x elapsed=0:02:11.43    \nframe=  166 fps=1.3 q=51.0 size=       1KiB time=00:00:01.37 bitrate=   3.3kbits/s speed=0.0104x elapsed=0:02:11.94    \nframe=  166 fps=1.3 q=51.0 size=       1KiB time=00:00:01.37 bitrate=   3.3kbits/s speed=0.0104x elapsed=0:02:12.46    \nframe=  168 fps=1.3 q=51.0 size=       1KiB time=00:00:01.39 bitrate=   3.2kbits/s speed=0.0105x elapsed=0:02:12.97    \nframe=  170 fps=1.3 q=51.0 size=       1KiB time=00:00:01.40 bitrate=   3.2kbits/s speed=0.0105x elapsed=0:02:13.49    \nframe=  171 fps=1.3 q=48.0 size=       1KiB time=00:00:01.41 bitrate=   3.2kbits/s speed=0.0106x elapsed=0:02:14.00    \nframe=  172 fps=1.3 q=52.0 size=       1KiB time=00:00:01.42 bitrate=   3.1kbits/s speed=0.0106x elapsed=0:02:14.52    \nframe=  174 fps=1.3 q=52.0 size=       1KiB time=00:00:01.44 bitrate=   3.1kbits/s speed=0.0107x elapsed=0:02:15.04    \nframe=  176 fps=1.3 q=52.0 size=       1KiB time=00:00:01.45 bitrate=   3.1kbits/s speed=0.0108x elapsed=0:02:15.55    \nframe=  177 fps=1.3 q=31.0 size=       1KiB time=00:00:01.46 bitrate=   3.1kbits/s speed=0.0108x elapsed=0:02:16.06    \nframe=  178 fps=1.3 q=52.0 size=       1KiB time=00:00:01.47 bitrate=   3.0kbits/s speed=0.0108x elapsed=0:02:16.58    \nframe=  180 fps=1.3 q=52.0 size=       1KiB time=00:00:01.49 bitrate=   3.0kbits/s speed=0.0109x elapsed=0:02:17.09    \nframe=  180 fps=1.3 q=52.0 size=       1KiB time=00:00:01.49 bitrate=   3.0kbits/s speed=0.0108x elapsed=0:02:17.61    \nframe=  181 fps=1.3 q=48.0 size=       1KiB time=00:00:01.50 bitrate=   3.0kbits/s speed=0.0109x elapsed=0:02:18.13    \nframe=  182 fps=1.3 q=52.0 size=       1KiB time=00:00:01.50 bitrate=   3.0kbits/s speed=0.0109x elapsed=0:02:18.64    \nframe=  182 fps=1.3 q=52.0 size=       1KiB time=00:00:01.50 bitrate=   3.0kbits/s speed=0.0108x elapsed=0:02:19.17    \nframe=  183 fps=1.3 q=46.0 size=       1KiB time=00:00:01.51 bitrate=   3.0kbits/s speed=0.0109x elapsed=0:02:19.67    \nframe=  185 fps=1.3 q=43.0 size=       1KiB time=00:00:01.53 bitrate=   2.9kbits/s speed=0.0109x elapsed=0:02:20.19    \nframe=  186 fps=1.3 q=52.0 size=       1KiB time=00:00:01.54 bitrate=   2.9kbits/s speed=0.011x elapsed=0:02:20.71    \nframe=  187 fps=1.3 q=49.0 size=       1KiB time=00:00:01.55 bitrate=   2.9kbits/s speed=0.011x elapsed=0:02:21.22    \nframe=  188 fps=1.3 q=52.0 size=       1KiB time=00:00:01.55 bitrate=   2.9kbits/s speed=0.011x elapsed=0:02:21.74    \nframe=  190 fps=1.3 q=53.0 size=       1KiB time=00:00:01.57 bitrate=   2.8kbits/s speed=0.0111x elapsed=0:02:22.26    \nframe=  191 fps=1.3 q=49.0 size=       1KiB time=00:00:01.58 bitrate=   2.8kbits/s speed=0.0111x elapsed=0:02:22.76    \nframe=  193 fps=1.3 q=32.0 size=       1KiB time=00:00:01.60 bitrate=   2.8kbits/s speed=0.0112x elapsed=0:02:23.28    \nframe=  193 fps=1.3 q=32.0 size=       1KiB time=00:00:01.60 bitrate=   2.8kbits/s speed=0.0111x elapsed=0:02:23.80    \nframe=  194 fps=1.3 q=53.0 size=       1KiB time=00:00:01.60 bitrate=   2.8kbits/s speed=0.0111x elapsed=0:02:24.32    \nframe=  194 fps=1.3 q=53.0 size=       1KiB time=00:00:01.60 bitrate=   2.8kbits/s speed=0.0111x elapsed=0:02:24.83    \nframe=  195 fps=1.3 q=51.0 size=       1KiB time=00:00:01.61 bitrate=   2.8kbits/s speed=0.0111x elapsed=0:02:25.34    \nframe=  195 fps=1.3 q=51.0 size=       1KiB time=00:00:01.61 bitrate=   2.8kbits/s speed=0.0111x elapsed=0:02:25.86    \nframe=  197 fps=1.3 q=49.0 size=       1KiB time=00:00:01.63 bitrate=   2.7kbits/s speed=0.0112x elapsed=0:02:26.37    \nframe=  198 fps=1.3 q=53.0 size=       1KiB time=00:00:01.64 bitrate=   2.7kbits/s speed=0.0112x elapsed=0:02:26.90    \nframe=  198 fps=1.3 q=53.0 size=       1KiB time=00:00:01.64 bitrate=   2.7kbits/s speed=0.0111x elapsed=0:02:27.40    \nframe=  199 fps=1.3 q=47.0 size=       1KiB time=00:00:01.65 bitrate=   2.7kbits/s speed=0.0112x elapsed=0:02:27.92    \nframe=  200 fps=1.3 q=53.0 size=       1KiB time=00:00:01.65 bitrate=   2.7kbits/s speed=0.0112x elapsed=0:02:28.44    \nframe=  200 fps=1.3 q=53.0 size=       1KiB time=00:00:01.65 bitrate=   2.7kbits/s speed=0.0111x elapsed=0:02:28.96    \nframe=  201 fps=1.3 q=44.0 size=       1KiB time=00:00:01.66 bitrate=   2.7kbits/s speed=0.0111x elapsed=0:02:29.48    \nframe=  202 fps=1.3 q=54.0 size=       1KiB time=00:00:01.67 bitrate=   2.7kbits/s speed=0.0112x elapsed=0:02:29.98    \nframe=  203 fps=1.3 q=50.0 size=       1KiB time=00:00:01.68 bitrate=   2.7kbits/s speed=0.0112x elapsed=0:02:30.51    \nframe=  206 fps=1.4 q=54.0 size=       1KiB time=00:00:01.70 bitrate=   2.6kbits/s speed=0.0113x elapsed=0:02:31.02    \nframe=  207 fps=1.4 q=50.0 size=       1KiB time=00:00:01.71 bitrate=   2.6kbits/s speed=0.0113x elapsed=0:02:31.54    \nframe=  208 fps=1.4 q=54.0 size=       1KiB time=00:00:01.72 bitrate=   2.6kbits/s speed=0.0113x elapsed=0:02:32.04    \nframe=  209 fps=1.4 q=33.0 size=       1KiB time=00:00:01.73 bitrate=   2.6kbits/s speed=0.0114x elapsed=0:02:32.57    \nframe=  210 fps=1.4 q=54.0 size=       1KiB time=00:00:01.74 bitrate=   2.6kbits/s speed=0.0114x elapsed=0:02:33.09    \nframe=  210 fps=1.4 q=54.0 size=       1KiB time=00:00:01.74 bitrate=   2.6kbits/s speed=0.0113x elapsed=0:02:33.61    \nframe=  211 fps=1.4 q=51.0 size=       1KiB time=00:00:01.75 bitrate=   2.6kbits/s speed=0.0114x elapsed=0:02:34.13    \nframe=  211 fps=1.4 q=51.0 size=       1KiB time=00:00:01.75 bitrate=   2.6kbits/s speed=0.0113x elapsed=0:02:34.64    \nframe=  212 fps=1.4 q=54.0 size=       1KiB time=00:00:01.75 bitrate=   2.5kbits/s speed=0.0113x elapsed=0:02:35.17    \nframe=  213 fps=1.4 q=47.0 size=       1KiB time=00:00:01.76 bitrate=   2.5kbits/s speed=0.0113x elapsed=0:02:35.67    \nframe=  213 fps=1.4 q=47.0 size=       1KiB time=00:00:01.76 bitrate=   2.5kbits/s speed=0.0113x elapsed=0:02:36.19    \nframe=  214 fps=1.4 q=54.0 size=       1KiB time=00:00:01.77 bitrate=   2.5kbits/s speed=0.0113x elapsed=0:02:36.71    \nframe=  214 fps=1.4 q=54.0 size=       1KiB time=00:00:01.77 bitrate=   2.5kbits/s speed=0.0113x elapsed=0:02:37.23    \nframe=  216 fps=1.4 q=54.0 size=       1KiB time=00:00:01.79 bitrate=   2.5kbits/s speed=0.0114x elapsed=0:02:37.74    \nframe=  217 fps=1.4 q=45.0 size=       1KiB time=00:00:01.80 bitrate=   2.5kbits/s speed=0.0114x elapsed=0:02:38.25    \nframe=  218 fps=1.4 q=54.0 size=       1KiB time=00:00:01.80 bitrate=   2.5kbits/s speed=0.0114x elapsed=0:02:38.82    \nframe=  218 fps=1.4 q=54.0 size=       1KiB time=00:00:01.80 bitrate=   2.5kbits/s speed=0.0113x elapsed=0:02:39.33    \nframe=  218 fps=1.4 q=54.0 size=       1KiB time=00:00:01.80 bitrate=   2.5kbits/s speed=0.0113x elapsed=0:02:39.85    \nframe=  220 fps=1.4 q=54.0 size=       1KiB time=00:00:01.82 bitrate=   2.5kbits/s speed=0.0114x elapsed=0:02:40.45    \nframe=  222 fps=1.4 q=54.0 size=       1KiB time=00:00:01.84 bitrate=   2.4kbits/s speed=0.0114x elapsed=0:02:41.06    \nframe=  222 fps=1.4 q=54.0 size=       1KiB time=00:00:01.84 bitrate=   2.4kbits/s speed=0.0114x elapsed=0:02:41.58    \nframe=  223 fps=1.4 q=50.0 size=       1KiB time=00:00:01.85 bitrate=   2.4kbits/s speed=0.0114x elapsed=0:02:42.11    \nframe=  224 fps=1.4 q=54.0 size=       1KiB time=00:00:01.85 bitrate=   2.4kbits/s speed=0.0114x elapsed=0:02:42.66    \nframe=  225 fps=1.4 q=34.0 size=       1KiB time=00:00:01.86 bitrate=   2.4kbits/s speed=0.0114x elapsed=0:02:43.19    \nframe=  226 fps=1.4 q=54.0 size=       1KiB time=00:00:01.87 bitrate=   2.4kbits/s speed=0.0114x elapsed=0:02:43.82    \nframe=  227 fps=1.4 q=52.0 size=       1KiB time=00:00:01.88 bitrate=   2.4kbits/s speed=0.0115x elapsed=0:02:44.37    \nframe=  228 fps=1.4 q=54.0 size=       1KiB time=00:00:01.89 bitrate=   2.4kbits/s speed=0.0115x elapsed=0:02:44.88    \nframe=  229 fps=1.4 q=50.0 size=       1KiB time=00:00:01.90 bitrate=   2.4kbits/s speed=0.0115x elapsed=0:02:45.40    \nframe=  229 fps=1.4 q=50.0 size=       1KiB time=00:00:01.90 bitrate=   2.4kbits/s speed=0.0115x elapsed=0:02:45.90    \nframe=  230 fps=1.4 q=54.0 size=       1KiB time=00:00:01.90 bitrate=   2.3kbits/s speed=0.0115x elapsed=0:02:46.42    \nframe=  231 fps=1.4 q=52.0 size=       1KiB time=00:00:01.91 bitrate=   2.3kbits/s speed=0.0115x elapsed=0:02:46.94    \nframe=  232 fps=1.4 q=54.0 size=       1KiB time=00:00:01.92 bitrate=   2.3kbits/s speed=0.0115x elapsed=0:02:47.46    \nframe=  233 fps=1.4 q=46.0 size=       1KiB time=00:00:01.93 bitrate=   2.3kbits/s speed=0.0115x elapsed=0:02:47.98    \nframe=  234 fps=1.4 q=54.0 size=       1KiB time=00:00:01.94 bitrate=   2.3kbits/s speed=0.0115x elapsed=0:02:48.48    \nframe=  234 fps=1.4 q=54.0 size=       1KiB time=00:00:01.94 bitrate=   2.3kbits/s speed=0.0115x elapsed=0:02:49.00    \nframe=  235 fps=1.4 q=51.0 size=       1KiB time=00:00:01.95 bitrate=   2.3kbits/s speed=0.0115x elapsed=0:02:49.52    \nframe=  236 fps=1.4 q=54.0 size=       1KiB time=00:00:01.95 bitrate=   2.3kbits/s speed=0.0115x elapsed=0:02:50.04    \nframe=  239 fps=1.4 q=50.0 size=       1KiB time=00:00:01.98 bitrate=   2.3kbits/s speed=0.0116x elapsed=0:02:50.56    \nframe=  240 fps=1.4 q=54.0 size=       1KiB time=00:00:01.99 bitrate=   2.2kbits/s speed=0.0116x elapsed=0:02:51.06    \nframe=  240 fps=1.4 q=54.0 size=       1KiB time=00:00:01.99 bitrate=   2.2kbits/s speed=0.0116x elapsed=0:02:51.59    \nframe=  242 fps=1.4 q=54.0 size=       1KiB time=00:00:02.00 bitrate=   2.2kbits/s speed=0.0117x elapsed=0:02:52.25    \nframe=  243 fps=1.4 q=52.0 size=       1KiB time=00:00:02.01 bitrate=   2.2kbits/s speed=0.0117x elapsed=0:02:52.91    \nframe=  244 fps=1.4 q=54.0 size=       1KiB time=00:00:02.02 bitrate=   2.2kbits/s speed=0.0117x elapsed=0:02:53.42    \nframe=  244 fps=1.4 q=54.0 size=       1KiB time=00:00:02.02 bitrate=   2.2kbits/s speed=0.0116x elapsed=0:02:53.94    \nframe=  245 fps=1.4 q=50.0 size=       1KiB time=00:00:02.03 bitrate=   2.2kbits/s speed=0.0117x elapsed=0:02:54.45    \nframe=  245 fps=1.4 q=50.0 size=       1KiB time=00:00:02.03 bitrate=   2.2kbits/s speed=0.0116x elapsed=0:02:54.97    \nframe=  246 fps=1.4 q=54.0 size=       1KiB time=00:00:02.04 bitrate=   2.2kbits/s speed=0.0116x elapsed=0:02:55.49    \nframe=  246 fps=1.4 q=54.0 size=       1KiB time=00:00:02.04 bitrate=   2.2kbits/s speed=0.0116x elapsed=0:02:56.01    \nframe=  247 fps=1.4 q=49.0 size=       1KiB time=00:00:02.05 bitrate=   2.2kbits/s speed=0.0116x elapsed=0:02:56.52    \nframe=  247 fps=1.4 q=49.0 size=       1KiB time=00:00:02.05 bitrate=   2.2kbits/s speed=0.0116x elapsed=0:02:57.03    \nframe=  249 fps=1.4 q=46.0 size=       1KiB time=00:00:02.06 bitrate=   2.2kbits/s speed=0.0116x elapsed=0:02:57.55    \nframe=  250 fps=1.4 q=54.0 size=       1KiB time=00:00:02.07 bitrate=   2.2kbits/s speed=0.0117x elapsed=0:02:58.07    \nframe=  250 fps=1.4 q=54.0 size=       1KiB time=00:00:02.07 bitrate=   2.2kbits/s speed=0.0116x elapsed=0:02:58.58    \nframe=  251 fps=1.4 q=51.0 size=       1KiB time=00:00:02.08 bitrate=   2.2kbits/s speed=0.0116x elapsed=0:02:59.09    \nframe=  252 fps=1.4 q=55.0 size=       1KiB time=00:00:02.09 bitrate=   2.1kbits/s speed=0.0116x elapsed=0:02:59.62    \nframe=  253 fps=1.4 q=48.0 size=       1KiB time=00:00:02.10 bitrate=   2.1kbits/s speed=0.0117x elapsed=0:03:00.13    \nframe=  254 fps=1.4 q=55.0 size=       1KiB time=00:00:02.10 bitrate=   2.1kbits/s speed=0.0117x elapsed=0:03:00.65    \nframe=  254 fps=1.4 q=55.0 size=       1KiB time=00:00:02.10 bitrate=   2.1kbits/s speed=0.0116x elapsed=0:03:01.17    \nframe=  256 fps=1.4 q=55.0 size=       1KiB time=00:00:02.12 bitrate=   2.1kbits/s speed=0.0117x elapsed=0:03:01.68    \nframe=  256 fps=1.4 q=55.0 size=       1KiB time=00:00:02.12 bitrate=   2.1kbits/s speed=0.0117x elapsed=0:03:02.19    \nframe=  257 fps=1.4 q=36.0 size=       1KiB time=00:00:02.13 bitrate=   2.1kbits/s speed=0.0117x elapsed=0:03:02.70    \nframe=  258 fps=1.4 q=55.0 size=       1KiB time=00:00:02.14 bitrate=   2.1kbits/s speed=0.0117x elapsed=0:03:03.23    \nframe=  258 fps=1.4 q=55.0 size=       1KiB time=00:00:02.14 bitrate=   2.1kbits/s speed=0.0117x elapsed=0:03:03.75    \nframe=  259 fps=1.4 q=53.0 size=       1KiB time=00:00:02.15 bitrate=   2.1kbits/s speed=0.0117x elapsed=0:03:04.27    \nframe=  260 fps=1.4 q=55.0 size=       1KiB time=00:00:02.15 bitrate=   2.1kbits/s speed=0.0117x elapsed=0:03:04.78    \nframe=  261 fps=1.4 q=51.0 size=       1KiB time=00:00:02.16 bitrate=   2.1kbits/s speed=0.0117x elapsed=0:03:05.31    \nframe=  261 fps=1.4 q=51.0 size=       1KiB time=00:00:02.16 bitrate=   2.1kbits/s speed=0.0117x elapsed=0:03:05.82    \nframe=  261 fps=1.4 q=51.0 size=       1KiB time=00:00:02.16 bitrate=   2.1kbits/s speed=0.0116x elapsed=0:03:06.33    \nframe=  262 fps=1.4 q=55.0 size=       1KiB time=00:00:02.17 bitrate=   2.1kbits/s speed=0.0116x elapsed=0:03:06.85    \nframe=  262 fps=1.4 q=55.0 size=       1KiB time=00:00:02.17 bitrate=   2.1kbits/s speed=0.0116x elapsed=0:03:07.36    \nframe=  263 fps=1.4 q=50.0 size=       1KiB time=00:00:02.18 bitrate=   2.1kbits/s speed=0.0116x elapsed=0:03:07.87    \nframe=  264 fps=1.4 q=55.0 size=       1KiB time=00:00:02.19 bitrate=   2.0kbits/s speed=0.0116x elapsed=0:03:08.39    \nframe=  265 fps=1.4 q=47.0 size=       1KiB time=00:00:02.20 bitrate=   2.0kbits/s speed=0.0116x elapsed=0:03:08.91    \nframe=  265 fps=1.4 q=47.0 size=       1KiB time=00:00:02.20 bitrate=   2.0kbits/s speed=0.0116x elapsed=0:03:09.42    \nframe=  266 fps=1.4 q=55.0 size=       1KiB time=00:00:02.20 bitrate=   2.0kbits/s speed=0.0116x elapsed=0:03:09.95    \nframe=  266 fps=1.4 q=55.0 size=       1KiB time=00:00:02.20 bitrate=   2.0kbits/s speed=0.0116x elapsed=0:03:10.46    \nframe=  267 fps=1.4 q=52.0 size=       1KiB time=00:00:02.21 bitrate=   2.0kbits/s speed=0.0116x elapsed=0:03:10.97    \nframe=  269 fps=1.4 q=49.0 size=       1KiB time=00:00:02.23 bitrate=   2.0kbits/s speed=0.0117x elapsed=0:03:11.48    \nframe=  270 fps=1.4 q=55.0 size=       1KiB time=00:00:02.24 bitrate=   2.0kbits/s speed=0.0117x elapsed=0:03:12.01    \nframe=  271 fps=1.4 q=52.0 size=       1KiB time=00:00:02.25 bitrate=   2.0kbits/s speed=0.0117x elapsed=0:03:12.52    \nframe=  271 fps=1.4 q=52.0 size=       1KiB time=00:00:02.25 bitrate=   2.0kbits/s speed=0.0117x elapsed=0:03:13.04    \nframe=  272 fps=1.4 q=55.0 size=       1KiB time=00:00:02.25 bitrate=   2.0kbits/s speed=0.0117x elapsed=0:03:13.55    \nframe=  273 fps=1.4 q=37.0 size=       1KiB time=00:00:02.26 bitrate=   2.0kbits/s speed=0.0117x elapsed=0:03:14.06    \nframe=  274 fps=1.4 q=55.0 size=       1KiB time=00:00:02.27 bitrate=   2.0kbits/s speed=0.0117x elapsed=0:03:14.59    \nframe=  274 fps=1.4 q=55.0 size=       1KiB time=00:00:02.27 bitrate=   2.0kbits/s speed=0.0117x elapsed=0:03:15.10    \nframe=  275 fps=1.4 q=54.0 size=       1KiB time=00:00:02.28 bitrate=   2.0kbits/s speed=0.0117x elapsed=0:03:15.61    \nframe=  276 fps=1.4 q=55.0 size=       1KiB time=00:00:02.29 bitrate=   2.0kbits/s speed=0.0117x elapsed=0:03:16.13    \nframe=  277 fps=1.4 q=52.0 size=       1KiB time=00:00:02.30 bitrate=   1.9kbits/s speed=0.0117x elapsed=0:03:16.65    \nframe=  277 fps=1.4 q=52.0 size=       1KiB time=00:00:02.30 bitrate=   1.9kbits/s speed=0.0117x elapsed=0:03:17.16    \nframe=  278 fps=1.4 q=55.0 size=       1KiB time=00:00:02.30 bitrate=   1.9kbits/s speed=0.0117x elapsed=0:03:17.67    \nframe=  278 fps=1.4 q=55.0 size=       1KiB time=00:00:02.30 bitrate=   1.9kbits/s speed=0.0116x elapsed=0:03:18.19    \nframe=  279 fps=1.4 q=54.0 size=       1KiB time=00:00:02.31 bitrate=   1.9kbits/s speed=0.0117x elapsed=0:03:18.71    \nframe=  280 fps=1.4 q=55.0 size=       1KiB time=00:00:02.32 bitrate=   1.9kbits/s speed=0.0117x elapsed=0:03:19.22    \nframe=  280 fps=1.4 q=55.0 size=       1KiB time=00:00:02.32 bitrate=   1.9kbits/s speed=0.0116x elapsed=0:03:19.73    \nframe=  281 fps=1.4 q=48.0 size=       1KiB time=00:00:02.33 bitrate=   1.9kbits/s speed=0.0117x elapsed=0:03:20.26    \nframe=  282 fps=1.4 q=56.0 size=       1KiB time=00:00:02.34 bitrate=   1.9kbits/s speed=0.0117x elapsed=0:03:20.77    \nframe=  283 fps=1.4 q=52.0 size=       1KiB time=00:00:02.35 bitrate=   1.9kbits/s speed=0.0117x elapsed=0:03:21.29    \nframe=  284 fps=1.4 q=56.0 size=       1KiB time=00:00:02.35 bitrate=   1.9kbits/s speed=0.0117x elapsed=0:03:21.80    \nframe=  285 fps=1.4 q=49.0 size=       1KiB time=00:00:02.36 bitrate=   1.9kbits/s speed=0.0117x elapsed=0:03:22.32    \nframe=  287 fps=1.4 q=52.0 size=       1KiB time=00:00:02.38 bitrate=   1.9kbits/s speed=0.0118x elapsed=0:03:22.83    \nframe=  287 fps=1.4 q=52.0 size=       1KiB time=00:00:02.38 bitrate=   1.9kbits/s speed=0.0117x elapsed=0:03:23.35    \nframe=  287 fps=1.4 q=52.0 size=       1KiB time=00:00:02.38 bitrate=   1.9kbits/s speed=0.0117x elapsed=0:03:23.87    \nframe=  288 fps=1.4 q=56.0 size=       1KiB time=00:00:02.39 bitrate=   1.9kbits/s speed=0.0117x elapsed=0:03:24.38    \nframe=  290 fps=1.4 q=56.0 size=       1KiB time=00:00:02.40 bitrate=   1.9kbits/s speed=0.0118x elapsed=0:03:24.89    \nframe=  290 fps=1.4 q=56.0 size=       1KiB time=00:00:02.40 bitrate=   1.9kbits/s speed=0.0117x elapsed=0:03:25.41    \nframe=  291 fps=1.4 q=53.0 size=       1KiB time=00:00:02.41 bitrate=   1.9kbits/s speed=0.0117x elapsed=0:03:25.93    \nframe=  292 fps=1.4 q=56.0 size=       1KiB time=00:00:02.42 bitrate=   1.8kbits/s speed=0.0117x elapsed=0:03:26.45    \nframe=  293 fps=1.4 q=50.0 size=       1KiB time=00:00:02.43 bitrate=   1.8kbits/s speed=0.0118x elapsed=0:03:26.96    \nframe=  293 fps=1.4 q=50.0 size=       1KiB time=00:00:02.43 bitrate=   1.8kbits/s speed=0.0117x elapsed=0:03:27.47    \nframe=  294 fps=1.4 q=56.0 size=       1KiB time=00:00:02.44 bitrate=   1.8kbits/s speed=0.0117x elapsed=0:03:27.99    \nframe=  295 fps=1.4 q=53.0 size=       1KiB time=00:00:02.45 bitrate=   1.8kbits/s speed=0.0118x elapsed=0:03:28.50    \nframe=  295 fps=1.4 q=53.0 size=       1KiB time=00:00:02.45 bitrate=   1.8kbits/s speed=0.0117x elapsed=0:03:29.02    \nframe=  297 fps=1.4 q=48.0 size=       1KiB time=00:00:02.46 bitrate=   1.8kbits/s speed=0.0118x elapsed=0:03:29.54    \nframe=  298 fps=1.4 q=56.0 size=       1KiB time=00:00:02.47 bitrate=   1.8kbits/s speed=0.0118x elapsed=0:03:30.05    \nframe=  299 fps=1.4 q=53.0 size=       1KiB time=00:00:02.48 bitrate=   1.8kbits/s speed=0.0118x elapsed=0:03:30.57    \nframe=  300 fps=1.4 q=56.0 size=       1KiB time=00:00:02.49 bitrate=   1.8kbits/s speed=0.0118x elapsed=0:03:31.08    \nframe=  303 fps=1.4 q=53.0 size=       1KiB time=00:00:02.51 bitrate=   1.8kbits/s speed=0.0119x elapsed=0:03:31.60    \nframe=  304 fps=1.4 q=56.0 size=       1KiB time=00:00:02.52 bitrate=   1.8kbits/s speed=0.0119x elapsed=0:03:32.12    \nframe=  305 fps=1.4 q=39.0 size=       1KiB time=00:00:02.53 bitrate=   1.8kbits/s speed=0.0119x elapsed=0:03:32.62    \nframe=  306 fps=1.4 q=56.0 size=       1KiB time=00:00:02.54 bitrate=   1.8kbits/s speed=0.0119x elapsed=0:03:33.15    \nframe=  306 fps=1.4 q=56.0 size=       1KiB time=00:00:02.54 bitrate=   1.8kbits/s speed=0.0119x elapsed=0:03:33.65    \nframe=  307 fps=1.4 q=55.0 size=       1KiB time=00:00:02.55 bitrate=   1.8kbits/s speed=0.0119x elapsed=0:03:34.18    \nframe=  308 fps=1.4 q=56.0 size=       1KiB time=00:00:02.55 bitrate=   1.8kbits/s speed=0.0119x elapsed=0:03:34.70    \nframe=  309 fps=1.4 q=53.0 size=       1KiB time=00:00:02.56 bitrate=   1.7kbits/s speed=0.0119x elapsed=0:03:35.20    \nframe=  309 fps=1.4 q=53.0 size=       1KiB time=00:00:02.56 bitrate=   1.7kbits/s speed=0.0119x elapsed=0:03:35.72    \nframe=  310 fps=1.4 q=56.0 size=       1KiB time=00:00:02.57 bitrate=   1.7kbits/s speed=0.0119x elapsed=0:03:36.23    \nframe=  310 fps=1.4 q=56.0 size=       1KiB time=00:00:02.57 bitrate=   1.7kbits/s speed=0.0119x elapsed=0:03:36.75    \nframe=  313 fps=1.4 q=49.0 size=       1KiB time=00:00:02.60 bitrate=   1.7kbits/s speed=0.012x elapsed=0:03:37.26    \nframe=  314 fps=1.4 q=56.0 size=       1KiB time=00:00:02.60 bitrate=   1.7kbits/s speed=0.012x elapsed=0:03:37.78    \nframe=  315 fps=1.4 q=53.0 size=       1KiB time=00:00:02.61 bitrate=   1.7kbits/s speed=0.012x elapsed=0:03:38.31    \nframe=  316 fps=1.4 q=57.0 size=       1KiB time=00:00:02.62 bitrate=   1.7kbits/s speed=0.012x elapsed=0:03:38.82    \nframe=  319 fps=1.5 q=53.0 size=       1KiB time=00:00:02.65 bitrate=   1.7kbits/s speed=0.0121x elapsed=0:03:39.33    \nframe=  320 fps=1.5 q=57.0 size=       1KiB time=00:00:02.65 bitrate=   1.7kbits/s speed=0.0121x elapsed=0:03:39.85    \nframe=  321 fps=1.5 q=40.0 size=       1KiB time=00:00:02.66 bitrate=   1.7kbits/s speed=0.0121x elapsed=0:03:40.37    \nframe=  322 fps=1.5 q=57.0 size=       1KiB time=00:00:02.67 bitrate=   1.7kbits/s speed=0.0121x elapsed=0:03:40.88    \nframe=  322 fps=1.5 q=57.0 size=       1KiB time=00:00:02.67 bitrate=   1.7kbits/s speed=0.0121x elapsed=0:03:41.40    \nframe=  323 fps=1.5 q=55.0 size=       1KiB time=00:00:02.68 bitrate=   1.7kbits/s speed=0.0121x elapsed=0:03:41.92    \nframe=  325 fps=1.5 q=53.0 size=       1KiB time=00:00:02.70 bitrate=   1.7kbits/s speed=0.0121x elapsed=0:03:42.44    \nframe=  326 fps=1.5 q=57.0 size=       1KiB time=00:00:02.70 bitrate=   1.7kbits/s speed=0.0121x elapsed=0:03:42.98    \nframe=  327 fps=1.5 q=52.0 size=       1KiB time=00:00:02.71 bitrate=   1.6kbits/s speed=0.0122x elapsed=0:03:43.50    \nframe=  329 fps=1.5 q=49.0 size=       1KiB time=00:00:02.73 bitrate=   1.6kbits/s speed=0.0122x elapsed=0:03:44.02    \nframe=  330 fps=1.5 q=57.0 size=       1KiB time=00:00:02.74 bitrate=   1.6kbits/s speed=0.0122x elapsed=0:03:44.56    \nframe=  330 fps=1.5 q=57.0 size=       1KiB time=00:00:02.74 bitrate=   1.6kbits/s speed=0.0122x elapsed=0:03:45.14    \nframe=  333 fps=1.5 q=51.0 size=       1KiB time=00:00:02.76 bitrate=   1.6kbits/s speed=0.0123x elapsed=0:03:45.67    \nframe=  335 fps=1.5 q=54.0 size=       1KiB time=00:00:02.78 bitrate=   1.6kbits/s speed=0.0123x elapsed=0:03:46.35    \nframe=  335 fps=1.5 q=54.0 size=       1KiB time=00:00:02.78 bitrate=   1.6kbits/s speed=0.0123x elapsed=0:03:46.90    \nframe=  337 fps=1.5 q=40.0 size=       1KiB time=00:00:02.80 bitrate=   1.6kbits/s speed=0.0123x elapsed=0:03:47.45    \nframe=  338 fps=1.5 q=57.0 size=       1KiB time=00:00:02.80 bitrate=   1.6kbits/s speed=0.0123x elapsed=0:03:48.03    \nframe=  340 fps=1.5 q=57.0 size=       1KiB time=00:00:02.82 bitrate=   1.6kbits/s speed=0.0124x elapsed=0:03:48.60    \nframe=  341 fps=1.5 q=54.0 size=       1KiB time=00:00:02.83 bitrate=   1.6kbits/s speed=0.0124x elapsed=0:03:49.11    \nframe=  341 fps=1.5 q=54.0 size=       1KiB time=00:00:02.83 bitrate=   1.6kbits/s speed=0.0123x elapsed=0:03:49.63    \nframe=  342 fps=1.5 q=57.0 size=       1KiB time=00:00:02.84 bitrate=   1.6kbits/s speed=0.0123x elapsed=0:03:50.16    \nframe=  343 fps=1.5 q=56.0 size=       1KiB time=00:00:02.85 bitrate=   1.6kbits/s speed=0.0124x elapsed=0:03:50.70    \nframe=  345 fps=1.5 q=50.0 size=       1KiB time=00:00:02.86 bitrate=   1.6kbits/s speed=0.0124x elapsed=0:03:51.22    \nframe=  346 fps=1.5 q=57.0 size=       1KiB time=00:00:02.87 bitrate=   1.6kbits/s speed=0.0124x elapsed=0:03:51.73    \nframe=  347 fps=1.5 q=54.0 size=       1KiB time=00:00:02.87 bitrate=   1.6kbits/s speed=0.0124x elapsed=0:03:52.32    \nframe=  347 fps=1.5 q=54.0 size=       1KiB time=00:00:02.88 bitrate=   1.6kbits/s speed=0.0124x elapsed=0:03:52.92    \nframe=  349 fps=1.5 q=51.0 size=       1KiB time=00:00:02.90 bitrate=   1.5kbits/s speed=0.0124x elapsed=0:03:53.46    \nframe=  351 fps=1.5 q=54.0 size=       1KiB time=00:00:02.91 bitrate=   1.5kbits/s speed=0.0125x elapsed=0:03:53.98    \nframe=  352 fps=1.5 q=57.0 size=       1KiB time=00:00:02.92 bitrate=   1.5kbits/s speed=0.0125x elapsed=0:03:54.52    \nframe=  353 fps=1.5 q=41.0 size=       1KiB time=00:00:02.93 bitrate=   1.5kbits/s speed=0.0125x elapsed=0:03:55.04    \nframe=  354 fps=1.5 q=57.0 size=       1KiB time=00:00:02.94 bitrate=   1.5kbits/s speed=0.0125x elapsed=0:03:55.55    \nframe=  355 fps=1.5 q=56.0 size=       1KiB time=00:00:02.95 bitrate=   1.5kbits/s speed=0.0125x elapsed=0:03:56.07    \nframe=  356 fps=1.5 q=57.0 size=       1KiB time=00:00:02.95 bitrate=   1.5kbits/s speed=0.0125x elapsed=0:03:56.62    \nframe=  357 fps=1.5 q=54.0 size=       1KiB time=00:00:02.96 bitrate=   1.5kbits/s speed=0.0125x elapsed=0:03:57.15    \nframe=  357 fps=1.5 q=54.0 size=       1KiB time=00:00:02.96 bitrate=   1.5kbits/s speed=0.0125x elapsed=0:03:57.68    \nframe=  358 fps=1.5 q=57.0 size=       1KiB time=00:00:02.97 bitrate=   1.5kbits/s speed=0.0125x elapsed=0:03:58.26    \nframe=  358 fps=1.5 q=57.0 size=       1KiB time=00:00:02.97 bitrate=   1.5kbits/s speed=0.0125x elapsed=0:03:58.80    \nframe=  360 fps=1.5 q=57.0 size=       1KiB time=00:00:02.99 bitrate=   1.5kbits/s speed=0.0125x elapsed=0:03:59.32    \nframe=  362 fps=1.5 q=57.0 size=       1KiB time=00:00:03.00 bitrate=   1.5kbits/s speed=0.0125x elapsed=0:03:59.95    \nframe=  365 fps=1.5 q=51.0 size=       1KiB time=00:00:03.03 bitrate=   1.5kbits/s speed=0.0126x elapsed=0:04:00.49    \nframe=  366 fps=1.5 q=58.0 size=       1KiB time=00:00:03.04 bitrate=   1.5kbits/s speed=0.0126x elapsed=0:04:01.01    \nframe=  367 fps=1.5 q=54.0 size=       1KiB time=00:00:03.05 bitrate=   1.5kbits/s speed=0.0126x elapsed=0:04:01.55    \nframe=  368 fps=1.5 q=58.0 size=       1KiB time=00:00:03.05 bitrate=   1.5kbits/s speed=0.0126x elapsed=0:04:02.06    \nframe=  371 fps=1.5 q=56.0 size=       1KiB time=00:00:03.08 bitrate=   1.5kbits/s speed=0.0127x elapsed=0:04:02.59    \nframe=  373 fps=1.5 q=54.0 size=       1KiB time=00:00:03.10 bitrate=   1.4kbits/s speed=0.0128x elapsed=0:04:03.10    \nframe=  373 fps=1.5 q=54.0 size=       1KiB time=00:00:03.10 bitrate=   1.4kbits/s speed=0.0127x elapsed=0:04:03.63    \nframe=  374 fps=1.5 q=58.0 size=       1KiB time=00:00:03.10 bitrate=   1.4kbits/s speed=0.0127x elapsed=0:04:04.14    \nframe=  374 fps=1.5 q=58.0 size=       1KiB time=00:00:03.10 bitrate=   1.4kbits/s speed=0.0127x elapsed=0:04:04.66    \nframe=  375 fps=1.5 q=53.0 size=       1KiB time=00:00:03.11 bitrate=   1.4kbits/s speed=0.0127x elapsed=0:04:05.23    \nframe=  378 fps=1.5 q=58.0 size=       1KiB time=00:00:03.14 bitrate=   1.4kbits/s speed=0.0128x elapsed=0:04:05.80    \nframe=  378 fps=1.5 q=58.0 size=       1KiB time=00:00:03.14 bitrate=   1.4kbits/s speed=0.0128x elapsed=0:04:06.32    \nframe=  379 fps=1.5 q=55.0 size=       1KiB time=00:00:03.15 bitrate=   1.4kbits/s speed=0.0128x elapsed=0:04:06.87    \nframe=  382 fps=1.5 q=57.0 size=       1KiB time=00:00:03.17 bitrate=   1.4kbits/s speed=0.0128x elapsed=0:04:07.41    \nframe=  383 fps=1.5 q=54.0 size=       1KiB time=00:00:03.18 bitrate=   1.4kbits/s speed=0.0128x elapsed=0:04:07.98    \nframe=  385 fps=1.5 q=42.0 size=       1KiB time=00:00:03.20 bitrate=   1.4kbits/s speed=0.0129x elapsed=0:04:08.49    \nframe=  386 fps=1.6 q=57.0 size=       1KiB time=00:00:03.20 bitrate=   1.4kbits/s speed=0.0129x elapsed=0:04:09.00    \nframe=  387 fps=1.6 q=56.0 size=       1KiB time=00:00:03.21 bitrate=   1.4kbits/s speed=0.0129x elapsed=0:04:09.53    \nframe=  389 fps=1.6 q=54.0 size=       1KiB time=00:00:03.23 bitrate=   1.4kbits/s speed=0.0129x elapsed=0:04:10.08    \nframe=  389 fps=1.6 q=54.0 size=       1KiB time=00:00:03.23 bitrate=   1.4kbits/s speed=0.0129x elapsed=0:04:10.62    \nframe=  390 fps=1.6 q=57.0 size=       1KiB time=00:00:03.24 bitrate=   1.4kbits/s speed=0.0129x elapsed=0:04:11.16    \nframe=  390 fps=1.5 q=57.0 size=       1KiB time=00:00:03.24 bitrate=   1.4kbits/s speed=0.0129x elapsed=0:04:11.67    \nframe=  390 fps=1.5 q=57.0 size=       1KiB time=00:00:03.24 bitrate=   1.4kbits/s speed=0.0129x elapsed=0:04:12.19    \nframe=  392 fps=1.6 q=57.0 size=       1KiB time=00:00:03.25 bitrate=   1.4kbits/s speed=0.0129x elapsed=0:04:12.71    \nframe=  393 fps=1.6 q=51.0 size=       1KiB time=00:00:03.26 bitrate=   1.4kbits/s speed=0.0129x elapsed=0:04:13.22    \nframe=  394 fps=1.6 q=57.0 size=       1KiB time=00:00:03.27 bitrate=   1.4kbits/s speed=0.0129x elapsed=0:04:13.73    \nframe=  395 fps=1.6 q=54.0 size=       1KiB time=00:00:03.28 bitrate=   1.4kbits/s speed=0.0129x elapsed=0:04:14.25    \nframe=  397 fps=1.6 q=51.0 size=       1KiB time=00:00:03.30 bitrate=   1.4kbits/s speed=0.013x elapsed=0:04:14.77    \nframe=  399 fps=1.6 q=54.0 size=       1KiB time=00:00:03.31 bitrate=   1.4kbits/s speed=0.013x elapsed=0:04:15.29    \nframe=  400 fps=1.6 q=57.0 size=       1KiB time=00:00:03.32 bitrate=   1.3kbits/s speed=0.013x elapsed=0:04:15.81    \nframe=  401 fps=1.6 q=43.0 size=       1KiB time=00:00:03.33 bitrate=   1.3kbits/s speed=0.013x elapsed=0:04:16.32    \nframe=  402 fps=1.6 q=57.0 size=       1KiB time=00:00:03.34 bitrate=   1.3kbits/s speed=0.013x elapsed=0:04:16.83    \nframe=  403 fps=1.6 q=56.0 size=       1KiB time=00:00:03.35 bitrate=   1.3kbits/s speed=0.013x elapsed=0:04:17.34    \nframe=  405 fps=1.6 q=54.0 size=       1KiB time=00:00:03.36 bitrate=   1.3kbits/s speed=0.0131x elapsed=0:04:17.86    \nframe=  406 fps=1.6 q=57.0 size=       1KiB time=00:00:03.37 bitrate=   1.3kbits/s speed=0.0131x elapsed=0:04:18.38    \nframe=  406 fps=1.6 q=57.0 size=       1KiB time=00:00:03.37 bitrate=   1.3kbits/s speed=0.013x elapsed=0:04:18.89    \nframe=  408 fps=1.6 q=57.0 size=       1KiB time=00:00:03.39 bitrate=   1.3kbits/s speed=0.0131x elapsed=0:04:19.42    \nframe=  409 fps=1.6 q=50.0 size=       1KiB time=00:00:03.40 bitrate=   1.3kbits/s speed=0.0131x elapsed=0:04:19.93    \nframe=  410 fps=1.6 q=57.0 size=       1KiB time=00:00:03.40 bitrate=   1.3kbits/s speed=0.0131x elapsed=0:04:20.44    \nframe=  411 fps=1.6 q=54.0 size=       1KiB time=00:00:03.41 bitrate=   1.3kbits/s speed=0.0131x elapsed=0:04:20.96    \nframe=  412 fps=1.6 q=57.0 size=       1KiB time=00:00:03.42 bitrate=   1.3kbits/s speed=0.0131x elapsed=0:04:21.47    \nframe=  413 fps=1.6 q=51.0 size=       1KiB time=00:00:03.43 bitrate=   1.3kbits/s speed=0.0131x elapsed=0:04:21.99    \nframe=  415 fps=1.6 q=54.0 size=       1KiB time=00:00:03.45 bitrate=   1.3kbits/s speed=0.0131x elapsed=0:04:22.50    \nframe=  416 fps=1.6 q=57.0 size=       1KiB time=00:00:03.45 bitrate=   1.3kbits/s speed=0.0131x elapsed=0:04:23.01    \nframe=  417 fps=1.6 q=43.0 size=       1KiB time=00:00:03.46 bitrate=   1.3kbits/s speed=0.0132x elapsed=0:04:23.53    \nframe=  418 fps=1.6 q=57.0 size=       1KiB time=00:00:03.47 bitrate=   1.3kbits/s speed=0.0132x elapsed=0:04:24.05    \nframe=  419 fps=1.6 q=56.0 size=       1KiB time=00:00:03.48 bitrate=   1.3kbits/s speed=0.0132x elapsed=0:04:24.57    \nframe=  420 fps=1.6 q=57.0 size=       1KiB time=00:00:03.49 bitrate=   1.3kbits/s speed=0.0132x elapsed=0:04:25.08    \nframe=  421 fps=1.6 q=54.0 size=       1KiB time=00:00:03.50 bitrate=   1.3kbits/s speed=0.0132x elapsed=0:04:25.59    \nframe=  421 fps=1.6 q=54.0 size=       1KiB time=00:00:03.50 bitrate=   1.3kbits/s speed=0.0132x elapsed=0:04:26.12    \nframe=  422 fps=1.6 q=57.0 size=       1KiB time=00:00:03.50 bitrate=   1.3kbits/s speed=0.0132x elapsed=0:04:26.63    \nframe=  422 fps=1.6 q=57.0 size=       1KiB time=00:00:03.50 bitrate=   1.3kbits/s speed=0.0131x elapsed=0:04:27.14    \nframe=  424 fps=1.6 q=57.0 size=       1KiB time=00:00:03.52 bitrate=   1.3kbits/s speed=0.0132x elapsed=0:04:27.67    \nframe=  424 fps=1.6 q=57.0 size=       1KiB time=00:00:03.52 bitrate=   1.3kbits/s speed=0.0131x elapsed=0:04:28.17    \nframe=  425 fps=1.6 q=50.0 size=       1KiB time=00:00:03.53 bitrate=   1.3kbits/s speed=0.0131x elapsed=0:04:28.70    \nframe=  426 fps=1.6 q=57.0 size=       1KiB time=00:00:03.54 bitrate=   1.3kbits/s speed=0.0132x elapsed=0:04:29.21    \nframe=  427 fps=1.6 q=54.0 size=       1KiB time=00:00:03.55 bitrate=   1.3kbits/s speed=0.0132x elapsed=0:04:29.72    \nframe=  430 fps=1.6 q=57.0 size=       1KiB time=00:00:03.57 bitrate=   1.3kbits/s speed=0.0132x elapsed=0:04:30.24    \nframe=  431 fps=1.6 q=54.0 size=       1KiB time=00:00:03.58 bitrate=   1.3kbits/s speed=0.0132x elapsed=0:04:30.75    \nframe=  433 fps=1.6 q=43.0 size=       1KiB time=00:00:03.60 bitrate=   1.2kbits/s speed=0.0133x elapsed=0:04:31.26    \nframe=  434 fps=1.6 q=57.0 size=       1KiB time=00:00:03.60 bitrate=   1.2kbits/s speed=0.0133x elapsed=0:04:31.78    \nframe=  434 fps=1.6 q=57.0 size=       1KiB time=00:00:03.60 bitrate=   1.2kbits/s speed=0.0133x elapsed=0:04:32.29    \nframe=  435 fps=1.6 q=56.0 size=       1KiB time=00:00:03.61 bitrate=   1.2kbits/s speed=0.0133x elapsed=0:04:32.82    \nframe=  436 fps=1.6 q=57.0 size=       1KiB time=00:00:03.62 bitrate=   1.2kbits/s speed=0.0133x elapsed=0:04:33.33    \nframe=  437 fps=1.6 q=54.0 size=       1KiB time=00:00:03.63 bitrate=   1.2kbits/s speed=0.0133x elapsed=0:04:33.84    \nframe=  437 fps=1.6 q=54.0 size=       1KiB time=00:00:03.63 bitrate=   1.2kbits/s speed=0.0132x elapsed=0:04:34.36    \nframe=  438 fps=1.6 q=57.0 size=       1KiB time=00:00:03.64 bitrate=   1.2kbits/s speed=0.0132x elapsed=0:04:34.88    \nframe=  438 fps=1.6 q=57.0 size=       1KiB time=00:00:03.64 bitrate=   1.2kbits/s speed=0.0132x elapsed=0:04:35.39    \nframe=  440 fps=1.6 q=57.0 size=       1KiB time=00:00:03.65 bitrate=   1.2kbits/s speed=0.0133x elapsed=0:04:35.91    \nframe=  440 fps=1.6 q=57.0 size=       1KiB time=00:00:03.65 bitrate=   1.2kbits/s speed=0.0132x elapsed=0:04:36.42    \nframe=  440 fps=1.6 q=57.0 size=       1KiB time=00:00:03.65 bitrate=   1.2kbits/s speed=0.0132x elapsed=0:04:36.95    \nframe=  441 fps=1.6 q=50.0 size=       1KiB time=00:00:03.66 bitrate=   1.2kbits/s speed=0.0132x elapsed=0:04:37.45    \nframe=  442 fps=1.6 q=57.0 size=       1KiB time=00:00:03.67 bitrate=   1.2kbits/s speed=0.0132x elapsed=0:04:37.97    \nframe=  443 fps=1.6 q=54.0 size=       1KiB time=00:00:03.68 bitrate=   1.2kbits/s speed=0.0132x elapsed=0:04:38.49    \nframe=  445 fps=1.6 q=51.0 size=       1KiB time=00:00:03.70 bitrate=   1.2kbits/s speed=0.0133x elapsed=0:04:39.00    \nframe=  446 fps=1.6 q=57.0 size=       1KiB time=00:00:03.70 bitrate=   1.2kbits/s speed=0.0133x elapsed=0:04:39.52    \nframe=  448 fps=1.6 q=57.0 size=       1KiB time=00:00:03.72 bitrate=   1.2kbits/s speed=0.0133x elapsed=0:04:40.03    \nframe=  449 fps=1.6 q=43.0 size=       1KiB time=00:00:03.73 bitrate=   1.2kbits/s speed=0.0133x elapsed=0:04:40.55    \nframe=  450 fps=1.6 q=57.0 size=       1KiB time=00:00:03.74 bitrate=   1.2kbits/s speed=0.0133x elapsed=0:04:41.07    \nframe=  450 fps=1.6 q=57.0 size=       1KiB time=00:00:03.74 bitrate=   1.2kbits/s speed=0.0133x elapsed=0:04:41.58    \nframe=  451 fps=1.6 q=56.0 size=       1KiB time=00:00:03.75 bitrate=   1.2kbits/s speed=0.0133x elapsed=0:04:42.09    \nframe=  453 fps=1.6 q=54.0 size=       1KiB time=00:00:03.76 bitrate=   1.2kbits/s speed=0.0133x elapsed=0:04:42.61    \nframe=  453 fps=1.6 q=54.0 size=       1KiB time=00:00:03.76 bitrate=   1.2kbits/s speed=0.0133x elapsed=0:04:43.12    \nframe=  454 fps=1.6 q=57.0 size=       1KiB time=00:00:03.77 bitrate=   1.2kbits/s speed=0.0133x elapsed=0:04:43.68    \nframe=  454 fps=1.6 q=57.0 size=       1KiB time=00:00:03.77 bitrate=   1.2kbits/s speed=0.0133x elapsed=0:04:44.19    \nframe=  456 fps=1.6 q=57.0 size=       1KiB time=00:00:03.79 bitrate=   1.2kbits/s speed=0.0133x elapsed=0:04:44.71    \nframe=  457 fps=1.6 q=50.0 size=       1KiB time=00:00:03.80 bitrate=   1.2kbits/s speed=0.0133x elapsed=0:04:45.23    \nframe=  457 fps=1.6 q=50.0 size=       1KiB time=00:00:03.80 bitrate=   1.2kbits/s speed=0.0133x elapsed=0:04:45.74    \nframe=  458 fps=1.6 q=56.0 size=       1KiB time=00:00:03.80 bitrate=   1.2kbits/s speed=0.0133x elapsed=0:04:46.25    \nframe=  460 fps=1.6 q=56.0 size=       1KiB time=00:00:03.82 bitrate=   1.2kbits/s speed=0.0133x elapsed=0:04:46.77    \nframe=  461 fps=1.6 q=51.0 size=       1KiB time=00:00:03.83 bitrate=   1.2kbits/s speed=0.0133x elapsed=0:04:47.28    \nframe=  462 fps=1.6 q=56.0 size=       1KiB time=00:00:03.84 bitrate=   1.2kbits/s speed=0.0133x elapsed=0:04:47.83    \nframe=  463 fps=1.6 q=53.0 size=       1KiB time=00:00:03.85 bitrate=   1.2kbits/s speed=0.0133x elapsed=0:04:48.45    \nframe=  463 fps=1.6 q=53.0 size=       1KiB time=00:00:03.85 bitrate=   1.2kbits/s speed=0.0133x elapsed=0:04:48.97    \nframe=  464 fps=1.6 q=56.0 size=       1KiB time=00:00:03.85 bitrate=   1.2kbits/s speed=0.0133x elapsed=0:04:49.48    \nframe=  465 fps=1.6 q=42.0 size=       1KiB time=00:00:03.86 bitrate=   1.2kbits/s speed=0.0133x elapsed=0:04:50.00    \nframe=  467 fps=1.6 q=53.0 size=       1KiB time=00:00:03.88 bitrate=   1.2kbits/s speed=0.0134x elapsed=0:04:50.53    \nframe=  469 fps=1.6 q=50.0 size=       1KiB time=00:00:03.90 bitrate=   1.1kbits/s speed=0.0134x elapsed=0:04:51.04    \nframe=  469 fps=1.6 q=50.0 size=       1KiB time=00:00:03.90 bitrate=   1.1kbits/s speed=0.0134x elapsed=0:04:51.56    \nframe=  470 fps=1.6 q=56.0 size=       1KiB time=00:00:03.90 bitrate=   1.1kbits/s speed=0.0134x elapsed=0:04:52.06    \nframe=  472 fps=1.6 q=56.0 size=       1KiB time=00:00:03.92 bitrate=   1.1kbits/s speed=0.0134x elapsed=0:04:52.58    \nframe=  473 fps=1.6 q=50.0 size=       1KiB time=00:00:03.93 bitrate=   1.1kbits/s speed=0.0134x elapsed=0:04:53.09    \nframe=  474 fps=1.6 q=56.0 size=       1KiB time=00:00:03.94 bitrate=   1.1kbits/s speed=0.0134x elapsed=0:04:53.61    \nframe=  475 fps=1.6 q=53.0 size=       1KiB time=00:00:03.95 bitrate=   1.1kbits/s speed=0.0134x elapsed=0:04:54.13    \nframe=  478 fps=1.6 q=57.0 size=       1KiB time=00:00:03.97 bitrate=   1.1kbits/s speed=0.0135x elapsed=0:04:54.64    \nframe=  479 fps=1.6 q=53.0 size=       1KiB time=00:00:03.98 bitrate=   1.1kbits/s speed=0.0135x elapsed=0:04:55.16    \nframe=  480 fps=1.6 q=57.0 size=       1KiB time=00:00:03.99 bitrate=   1.1kbits/s speed=0.0135x elapsed=0:04:55.67    \nframe=  481 fps=1.6 q=42.0 size=       1KiB time=00:00:04.00 bitrate=   1.1kbits/s speed=0.0135x elapsed=0:04:56.19    \nframe=  482 fps=1.6 q=57.0 size=       1KiB time=00:00:04.00 bitrate=   1.1kbits/s speed=0.0135x elapsed=0:04:56.71    \nframe=  483 fps=1.6 q=55.0 size=       1KiB time=00:00:04.01 bitrate=   1.1kbits/s speed=0.0135x elapsed=0:04:57.22    \nframe=  483 fps=1.6 q=55.0 size=       1KiB time=00:00:04.01 bitrate=   1.1kbits/s speed=0.0135x elapsed=0:04:57.74    \nframe=  485 fps=1.6 q=53.0 size=       1KiB time=00:00:04.03 bitrate=   1.1kbits/s speed=0.0135x elapsed=0:04:58.25    \nframe=  486 fps=1.6 q=57.0 size=       1KiB time=00:00:04.04 bitrate=   1.1kbits/s speed=0.0135x elapsed=0:04:58.77    \nframe=  487 fps=1.6 q=55.0 size=       1KiB time=00:00:04.05 bitrate=   1.1kbits/s speed=0.0135x elapsed=0:04:59.28    \nframe=  488 fps=1.6 q=57.0 size=       1KiB time=00:00:04.05 bitrate=   1.1kbits/s speed=0.0135x elapsed=0:04:59.80    \nframe=  490 fps=1.6 q=57.0 size=       1KiB time=00:00:04.07 bitrate=   1.1kbits/s speed=0.0136x elapsed=0:05:00.31    \nframe=  490 fps=1.6 q=57.0 size=       1KiB time=00:00:04.07 bitrate=   1.1kbits/s speed=0.0135x elapsed=0:05:00.84    \nframe=  492 fps=1.6 q=57.0 size=       1KiB time=00:00:04.09 bitrate=   1.1kbits/s speed=0.0136x elapsed=0:05:01.36    \nframe=  494 fps=1.6 q=57.0 size=       1KiB time=00:00:04.10 bitrate=   1.1kbits/s speed=0.0136x elapsed=0:05:01.86    \nframe=  497 fps=1.6 q=42.0 size=       1KiB time=00:00:04.13 bitrate=   1.1kbits/s speed=0.0137x elapsed=0:05:02.39    \nframe=  498 fps=1.6 q=57.0 size=       1KiB time=00:00:04.14 bitrate=   1.1kbits/s speed=0.0137x elapsed=0:05:02.92    \nframe=  500 fps=1.6 q=57.0 size=       1KiB time=00:00:04.15 bitrate=   1.1kbits/s speed=0.0137x elapsed=0:05:03.42    \nframe=  501 fps=1.6 q=51.0 size=       1KiB time=00:00:04.16 bitrate=   1.1kbits/s speed=0.0137x elapsed=0:05:03.94    \nframe=  501 fps=1.6 q=51.0 size=       1KiB time=00:00:04.16 bitrate=   1.1kbits/s speed=0.0137x elapsed=0:05:04.45    \nframe=  505 fps=1.7 q=50.0 size=       1KiB time=00:00:04.20 bitrate=   1.1kbits/s speed=0.0138x elapsed=0:05:04.97    \nframe=  505 fps=1.7 q=50.0 size=       1KiB time=00:00:04.20 bitrate=   1.1kbits/s speed=0.0137x elapsed=0:05:05.49    \nframe=  505 fps=1.7 q=50.0 size=       1KiB time=00:00:04.20 bitrate=   1.1kbits/s speed=0.0137x elapsed=0:05:06.00    \nframe=  505 fps=1.6 q=50.0 size=       1KiB time=00:00:04.20 bitrate=   1.1kbits/s speed=0.0137x elapsed=0:05:06.53    \nframe=  507 fps=1.7 q=54.0 size=       1KiB time=00:00:04.21 bitrate=   1.1kbits/s speed=0.0137x elapsed=0:05:07.03    \nframe=  509 fps=1.7 q=51.0 size=       1KiB time=00:00:04.23 bitrate=   1.1kbits/s speed=0.0138x elapsed=0:05:07.55    \nframe=  509 fps=1.7 q=51.0 size=       1KiB time=00:00:04.23 bitrate=   1.1kbits/s speed=0.0137x elapsed=0:05:08.07    \nframe=  513 fps=1.7 q=43.0 size=       1KiB time=00:00:04.26 bitrate=   1.0kbits/s speed=0.0138x elapsed=0:05:08.58    \nframe=  513 fps=1.7 q=43.0 size=       1KiB time=00:00:04.26 bitrate=   1.0kbits/s speed=0.0138x elapsed=0:05:09.10    \nframe=  513 fps=1.7 q=43.0 size=       1KiB time=00:00:04.26 bitrate=   1.0kbits/s speed=0.0138x elapsed=0:05:09.62    \nframe=  517 fps=1.7 q=51.0 size=       1KiB time=00:00:04.30 bitrate=   1.0kbits/s speed=0.0139x elapsed=0:05:10.12    \nframe=  517 fps=1.7 q=51.0 size=       1KiB time=00:00:04.30 bitrate=   1.0kbits/s speed=0.0138x elapsed=0:05:10.64    \nframe=  519 fps=1.7 q=54.0 size=       1KiB time=00:00:04.31 bitrate=   1.0kbits/s speed=0.0139x elapsed=0:05:11.16    \nframe=  521 fps=1.7 q=50.0 size=       1KiB time=00:00:04.33 bitrate=   1.0kbits/s speed=0.0139x elapsed=0:05:11.68    \nframe=  521 fps=1.7 q=50.0 size=       1KiB time=00:00:04.33 bitrate=   1.0kbits/s speed=0.0139x elapsed=0:05:12.19    \nframe=  523 fps=1.7 q=54.0 size=       1KiB time=00:00:04.35 bitrate=   1.0kbits/s speed=0.0139x elapsed=0:05:12.71    \nframe=  525 fps=1.7 q=51.0 size=       1KiB time=00:00:04.36 bitrate=   1.0kbits/s speed=0.0139x elapsed=0:05:13.22    \nframe=  525 fps=1.7 q=51.0 size=       1KiB time=00:00:04.36 bitrate=   1.0kbits/s speed=0.0139x elapsed=0:05:13.73    \nframe=  525 fps=1.7 q=51.0 size=       1KiB time=00:00:04.36 bitrate=   1.0kbits/s speed=0.0139x elapsed=0:05:14.25    \nframe=  527 fps=1.7 q=53.0 size=       1KiB time=00:00:04.38 bitrate=   1.0kbits/s speed=0.0139x elapsed=0:05:14.77    \nframe=  529 fps=1.7 q=43.0 size=       1KiB time=00:00:04.40 bitrate=   1.0kbits/s speed=0.014x elapsed=0:05:15.29    \nframe=  529 fps=1.7 q=43.0 size=       1KiB time=00:00:04.40 bitrate=   1.0kbits/s speed=0.0139x elapsed=0:05:15.81    \nframe=  529 fps=1.7 q=43.0 size=       1KiB time=00:00:04.40 bitrate=   1.0kbits/s speed=0.0139x elapsed=0:05:16.32    \nframe=  531 fps=1.7 q=55.0 size=       1KiB time=00:00:04.41 bitrate=   1.0kbits/s speed=0.0139x elapsed=0:05:16.83    \nframe=  533 fps=1.7 q=53.0 size=       1KiB time=00:00:04.43 bitrate=   1.0kbits/s speed=0.014x elapsed=0:05:17.36    \nframe=  535 fps=1.7 q=55.0 size=       1KiB time=00:00:04.45 bitrate=   1.0kbits/s speed=0.014x elapsed=0:05:17.88    \nframe=  537 fps=1.7 q=50.0 size=       1KiB time=00:00:04.46 bitrate=   1.0kbits/s speed=0.014x elapsed=0:05:18.40    \nframe=  537 fps=1.7 q=50.0 size=       1KiB time=00:00:04.46 bitrate=   1.0kbits/s speed=0.014x elapsed=0:05:18.91    \nframe=  537 fps=1.7 q=50.0 size=       1KiB time=00:00:04.46 bitrate=   1.0kbits/s speed=0.014x elapsed=0:05:19.42    \nframe=  537 fps=1.7 q=50.0 size=       1KiB time=00:00:04.46 bitrate=   1.0kbits/s speed=0.014x elapsed=0:05:19.95    \nframe=  539 fps=1.7 q=53.0 size=       1KiB time=00:00:04.48 bitrate=   1.0kbits/s speed=0.014x elapsed=0:05:20.46    \nframe=  541 fps=1.7 q=50.0 size=       1KiB time=00:00:04.50 bitrate=   1.0kbits/s speed=0.014x elapsed=0:05:20.97    \nframe=  541 fps=1.7 q=50.0 size=       1KiB time=00:00:04.50 bitrate=   1.0kbits/s speed=0.014x elapsed=0:05:21.48    \nframe=  541 fps=1.7 q=50.0 size=       1KiB time=00:00:04.50 bitrate=   1.0kbits/s speed=0.014x elapsed=0:05:22.01    \nframe=  543 fps=1.7 q=53.0 size=       1KiB time=00:00:04.51 bitrate=   1.0kbits/s speed=0.014x elapsed=0:05:22.53    \nframe=  545 fps=1.7 q=43.0 size=       1KiB time=00:00:04.53 bitrate=   1.0kbits/s speed=0.014x elapsed=0:05:23.06    \nframe=  545 fps=1.7 q=43.0 size=       1KiB time=00:00:04.53 bitrate=   1.0kbits/s speed=0.014x elapsed=0:05:23.57    \nframe=  547 fps=1.7 q=55.0 size=       1KiB time=00:00:04.55 bitrate=   1.0kbits/s speed=0.014x elapsed=0:05:24.09    \nframe=  549 fps=1.7 q=53.0 size=       1KiB time=00:00:04.56 bitrate=   1.0kbits/s speed=0.0141x elapsed=0:05:24.59    \nframe=  549 fps=1.7 q=53.0 size=       1KiB time=00:00:04.56 bitrate=   1.0kbits/s speed=0.014x elapsed=0:05:25.12    \nframe=  549 fps=1.7 q=53.0 size=       1KiB time=00:00:04.56 bitrate=   1.0kbits/s speed=0.014x elapsed=0:05:25.63    \nframe=  553 fps=1.7 q=49.0 size=       1KiB time=00:00:04.60 bitrate=   1.0kbits/s speed=0.0141x elapsed=0:05:26.14    \nframe=  553 fps=1.7 q=49.0 size=       1KiB time=00:00:04.60 bitrate=   1.0kbits/s speed=0.0141x elapsed=0:05:26.66    \nframe=  553 fps=1.7 q=49.0 size=       1KiB time=00:00:04.60 bitrate=   1.0kbits/s speed=0.0141x elapsed=0:05:27.18    \nframe=  553 fps=1.7 q=49.0 size=       1KiB time=00:00:04.60 bitrate=   1.0kbits/s speed=0.014x elapsed=0:05:27.69    \nframe=  553 fps=1.7 q=49.0 size=       1KiB time=00:00:04.60 bitrate=   1.0kbits/s speed=0.014x elapsed=0:05:28.20    \nframe=  557 fps=1.7 q=51.0 size=       1KiB time=00:00:04.63 bitrate=   1.0kbits/s speed=0.0141x elapsed=0:05:28.73    \nframe=  559 fps=1.7 q=53.0 size=       1KiB time=00:00:04.65 bitrate=   1.0kbits/s speed=0.0141x elapsed=0:05:29.24    \nframe=  559 fps=1.7 q=53.0 size=       1KiB time=00:00:04.65 bitrate=   1.0kbits/s speed=0.0141x elapsed=0:05:29.75    \nframe=  561 fps=1.7 q=42.0 size=       1KiB time=00:00:04.66 bitrate=   1.0kbits/s speed=0.0141x elapsed=0:05:30.27    \nframe=  561 fps=1.7 q=42.0 size=       1KiB time=00:00:04.66 bitrate=   1.0kbits/s speed=0.0141x elapsed=0:05:30.78    \nframe=  563 fps=1.7 q=54.0 size=       1KiB time=00:00:04.68 bitrate=   1.0kbits/s speed=0.0141x elapsed=0:05:31.30    \nframe=  565 fps=1.7 q=53.0 size=       1KiB time=00:00:04.70 bitrate=   1.0kbits/s speed=0.0142x elapsed=0:05:31.82    \nframe=  569 fps=1.7 q=50.0 size=       1KiB time=00:00:04.73 bitrate=   0.9kbits/s speed=0.0142x elapsed=0:05:32.33    \nframe=  569 fps=1.7 q=50.0 size=       1KiB time=00:00:04.73 bitrate=   0.9kbits/s speed=0.0142x elapsed=0:05:32.84    \nframe=  569 fps=1.7 q=50.0 size=       1KiB time=00:00:04.73 bitrate=   0.9kbits/s speed=0.0142x elapsed=0:05:33.37    \nframe=  573 fps=1.7 q=53.0 size=       1KiB time=00:00:04.76 bitrate=   0.9kbits/s speed=0.0143x elapsed=0:05:33.88    \nframe=  573 fps=1.7 q=53.0 size=       1KiB time=00:00:04.76 bitrate=   0.9kbits/s speed=0.0143x elapsed=0:05:34.39    \nframe=  573 fps=1.7 q=53.0 size=       1KiB time=00:00:04.76 bitrate=   0.9kbits/s speed=0.0142x elapsed=0:05:34.91    \nframe=  575 fps=1.7 q=56.0 size=       1KiB time=00:00:04.78 bitrate=   0.9kbits/s speed=0.0143x elapsed=0:05:35.43    \nframe=  579 fps=1.7 q=56.0 size=       1KiB time=00:00:04.81 bitrate=   0.9kbits/s speed=0.0143x elapsed=0:05:35.95    \nframe=  581 fps=1.7 q=56.0 size=       1KiB time=00:00:04.83 bitrate=   0.9kbits/s speed=0.0144x elapsed=0:05:36.47    \nframe=  585 fps=1.7 q=53.0 size=       1KiB time=00:00:04.86 bitrate=   0.9kbits/s speed=0.0144x elapsed=0:05:36.98    \nframe=  585 fps=1.7 q=53.0 size=       1KiB time=00:00:04.86 bitrate=   0.9kbits/s speed=0.0144x elapsed=0:05:37.51    \nframe=  585 fps=1.7 q=53.0 size=       1KiB time=00:00:04.86 bitrate=   0.9kbits/s speed=0.0144x elapsed=0:05:38.02    \nframe=  589 fps=1.7 q=56.0 size=       1KiB time=00:00:04.90 bitrate=   0.9kbits/s speed=0.0145x elapsed=0:05:38.53    \nframe=  589 fps=1.7 q=56.0 size=       1KiB time=00:00:04.90 bitrate=   0.9kbits/s speed=0.0145x elapsed=0:05:39.05    \n[out#0/matroska @ 0000020d96c39940] video:2577KiB audio:0KiB subtitle:0KiB other streams:0KiB global headers:0KiB muxing overhead: 0.126698%\nframe=  600 fps=1.8 q=56.0 Lsize=    2581KiB time=00:00:04.99 bitrate=4235.4kbits/s speed=0.0147x elapsed=0:05:39.72    \n",
  "seconds": 341.5109119415283,
  "probe_out": {}
}